<svg width="539" height="505" viewBox="0 0 539 505" fill="none" xmlns="http://www.w3.org/2000/svg">
<rect width="539" height="505" fill="#FDE2E2"/>
<path d="M539 0H0V505H539V0Z" fill="#FDE2E2"/>
<path d="M34.0648 484.396C34.0648 485.658 33.418 486.264 32.6634 486.264C32.0705 486.264 31.6393 486.012 31.5315 485.557C31.3159 485.81 30.9925 485.961 30.5613 485.961C29.7528 485.961 29.1599 485.355 29.1599 484.547C29.1599 483.739 29.7528 483.133 30.5613 483.133C30.9386 483.133 31.2081 483.285 31.4237 483.487V483.234H32.2861V485.204C32.2861 485.608 32.4478 485.911 32.8251 485.911C33.3102 485.911 33.7414 485.456 33.7414 484.396C33.7414 482.881 32.5017 481.72 30.8308 481.72C29.1599 481.72 27.8124 482.931 27.8124 484.598C27.8124 486.264 29.1599 487.476 30.9925 487.476C31.5854 487.476 32.1244 487.375 32.5556 487.274V487.577C32.1244 487.729 31.6393 487.779 30.9925 487.779C28.9982 487.779 27.489 486.466 27.489 484.648C27.489 482.931 28.9443 481.517 30.8308 481.517C32.9329 481.416 34.0648 482.982 34.0648 484.396ZM31.4237 484.547C31.4237 484.143 31.1003 483.84 30.723 483.84C30.2918 483.84 30.0223 484.093 30.0223 484.547C30.0223 484.951 30.3457 485.204 30.723 485.204C31.1542 485.254 31.4237 484.951 31.4237 484.547Z" fill="#352934"/>
<path d="M37.4066 482.326V483.335C36.7598 483.285 36.0052 483.588 36.0052 484.548V486.719H34.9811V482.376H36.0052V483.083C36.2747 482.527 36.8137 482.326 37.4066 482.326Z" fill="#352934"/>
<path d="M40.2094 485.961C40.7484 485.961 41.1796 485.709 41.3952 485.406L42.2037 485.86C41.7725 486.466 41.0718 486.82 40.1555 486.82C38.6463 486.82 37.6222 485.861 37.6222 484.548C37.6222 483.285 38.5924 482.275 40.0477 482.275C41.4491 482.275 42.3654 483.335 42.3654 484.548C42.3654 484.699 42.3654 484.8 42.3115 484.951H38.6463C38.8619 485.608 39.4548 485.961 40.2094 485.961ZM41.4491 484.194C41.2874 483.436 40.7484 483.134 40.1016 483.134C39.347 483.134 38.8619 483.537 38.7002 484.194H41.4491Z" fill="#352934"/>
<path d="M47.9171 482.376V486.719H46.893V486.113C46.5157 486.568 45.9767 486.871 45.276 486.871C44.0363 486.871 42.9583 485.861 42.9583 484.598C42.9583 483.285 43.9824 482.326 45.276 482.326C45.9767 482.326 46.5157 482.578 46.893 483.033V482.427H47.9171V482.376ZM46.9469 484.548C46.9469 483.74 46.3001 483.184 45.4916 483.184C44.6831 483.184 44.0363 483.74 44.0363 484.548C44.0363 485.356 44.6831 485.911 45.4916 485.911C46.3001 485.962 46.9469 485.356 46.9469 484.548Z" fill="#352934"/>
<path d="M49.1029 480.406H50.127V486.719H49.1029V480.406Z" fill="#352934"/>
<path d="M55.4631 482.376L53.6844 486.719H52.5525L50.7738 482.376H51.8518L53.1454 485.659L54.439 482.376H55.4631Z" fill="#352934"/>
<path d="M56.1638 482.376H57.1879V486.87C57.1879 488.082 56.5411 488.638 55.3014 488.537V487.628C55.8943 487.678 56.2177 487.476 56.2177 486.87V482.376H56.1638ZM56.056 481.164C56.056 480.81 56.3255 480.558 56.7028 480.558C57.0801 480.558 57.3496 480.81 57.3496 481.164C57.3496 481.467 57.0801 481.77 56.7028 481.77C56.3255 481.77 56.056 481.467 56.056 481.164Z" fill="#352934"/>
<path d="M62.524 482.376L60.7453 486.82C60.3141 487.931 59.5595 488.487 58.4815 488.436V487.578C59.1283 487.628 59.5056 487.325 59.7212 486.719L59.7751 486.618L57.8347 482.376H58.9127L60.3141 485.507L61.4999 482.376H62.524V482.376Z" fill="#352934"/>
<path d="M114.214 474.044C114.214 475.104 113.406 475.962 112.274 475.962H110.657V472.125H112.274C113.406 472.125 114.214 472.983 114.214 474.044ZM113.675 474.044C113.675 473.236 113.082 472.579 112.274 472.579H111.196V475.457H112.274C113.082 475.508 113.675 474.852 113.675 474.044Z" fill="#352934"/>
<path d="M118.311 475.104H116.478L116.155 475.962H115.562L117.071 472.125H117.664L119.173 475.962H118.58L118.311 475.104ZM118.149 474.65L117.394 472.731L116.64 474.65H118.149Z" fill="#352934"/>
<path d="M122.03 474.397V475.962H121.491V474.397L120.035 472.125H120.628L121.76 473.943L122.892 472.125H123.485L122.03 474.397Z" fill="#352934"/>
<path d="M129.091 472.125V475.962H128.552V472.68L127.689 472.933L127.527 472.478L128.605 472.125H129.091Z" fill="#352934"/>
<path d="M133.726 474.852C133.726 475.609 133.079 476.064 132.325 476.064C131.732 476.064 131.193 475.811 130.977 475.306L131.462 475.054C131.57 475.407 131.893 475.609 132.378 475.609C132.864 475.609 133.241 475.357 133.241 474.902C133.241 474.448 132.864 474.195 132.378 474.195H132.217L132.001 473.892L132.971 472.68H131.139V472.225H133.618V472.68L132.702 473.791C133.241 473.791 133.726 474.195 133.726 474.852Z" fill="#352934"/>
<path d="M31.7471 474.044C31.7471 475.104 30.9386 475.963 29.8067 475.963H28.1897V472.125H29.8067C30.9386 472.125 31.7471 472.983 31.7471 474.044ZM31.2081 474.044C31.2081 473.236 30.6152 472.579 29.8067 472.579H28.7287V475.458H29.8067C30.6152 475.508 31.2081 474.852 31.2081 474.044Z" fill="#352934"/>
<path d="M36.113 475.508V476.013H33.6336V472.175H36.0591V472.68H34.1726V473.841H35.8974V474.296H34.1726V475.508H36.113V475.508Z" fill="#352934"/>
<path d="M37.73 475.104L38.2151 474.852C38.3768 475.256 38.7002 475.559 39.2931 475.559C39.886 475.559 40.1555 475.306 40.1555 474.953C40.1555 474.549 39.7782 474.448 39.1853 474.246C38.5385 474.044 37.8917 473.842 37.8917 473.135C37.8917 472.428 38.4846 472.023 39.1853 472.023C39.886 472.023 40.3711 472.377 40.5867 472.882L40.1555 473.135C39.9938 472.781 39.7243 472.529 39.2392 472.529C38.808 472.529 38.4846 472.73 38.4846 473.084C38.4846 473.438 38.7541 473.589 39.347 473.741C40.0477 473.943 40.7484 474.145 40.7484 474.902C40.7484 475.559 40.1555 476.013 39.347 476.013C38.5385 476.064 37.9456 475.66 37.73 475.104Z" fill="#352934"/>
<path d="M43.12 472.125V475.962H42.581V472.125H43.12Z" fill="#352934"/>
<path d="M49.2107 474.296C49.2107 475.256 48.4561 476.064 47.2164 476.064C45.9228 476.064 45.0604 475.155 45.0604 474.044C45.0604 472.933 45.9767 472.023 47.2164 472.023C47.971 472.023 48.6717 472.427 48.9951 472.933L48.51 473.185C48.2944 472.781 47.7554 472.478 47.2164 472.478C46.2462 472.478 45.5994 473.134 45.5994 473.993C45.5994 474.852 46.2462 475.508 47.2164 475.508C48.0788 475.508 48.5639 475.054 48.6717 474.498H47.1625V474.044H49.2107V474.296V474.296Z" fill="#352934"/>
<path d="M54.2234 472.125V475.962H53.7922L51.6901 473.084V475.962H51.1511V472.125H51.5823L53.6844 475.003V472.125H54.2234Z" fill="#352934"/>
<path d="M58.8049 475.508V476.013H56.3255V472.175H58.751V472.68H56.8645V473.841H58.5893V474.296H56.8645V475.508H58.8049V475.508Z" fill="#352934"/>
<path d="M64.2488 474.044C64.2488 475.104 63.4403 475.962 62.3084 475.962H60.6914V472.125H62.3084C63.3864 472.125 64.2488 472.983 64.2488 474.044ZM63.7098 474.044C63.7098 473.236 63.1169 472.579 62.3084 472.579H61.2304V475.457H62.3084C63.1169 475.508 63.7098 474.852 63.7098 474.044Z" fill="#352934"/>
<path d="M71.7948 474.902C71.7948 475.508 71.2558 476.013 70.609 476.013H68.8303V472.175H70.4473C71.0941 472.175 71.5792 472.629 71.5792 473.235C71.5792 473.589 71.4175 473.841 71.148 474.043C71.5253 474.144 71.7948 474.447 71.7948 474.902ZM69.3693 472.579V473.74H70.4473C70.7707 473.74 71.0402 473.488 71.0402 473.134C71.0402 472.831 70.7707 472.528 70.4473 472.528H69.3693V472.579ZM71.2558 474.851C71.2558 474.498 70.9863 474.245 70.609 474.245H69.3693V475.508H70.609C70.9863 475.508 71.2558 475.205 71.2558 474.851Z" fill="#352934"/>
<path d="M75.1366 474.397V475.962H74.5976V474.397L73.1423 472.125H73.7352L74.8671 473.943L75.999 472.125H76.5919L75.1366 474.397Z" fill="#352934"/>
<path d="M111.843 480.71V486.971H110.765V480.71H111.843Z" fill="#352934"/>
<path d="M117.502 481.72H115.616V486.971H114.538V481.72H112.651V480.76H117.502V481.72Z" fill="#352934"/>
<path d="M127.204 484.144C127.204 485.861 125.91 487.073 123.916 487.073C121.814 487.073 120.359 485.608 120.359 483.84C120.359 482.073 121.868 480.609 123.862 480.609C125.156 480.609 126.234 481.215 126.773 482.073L125.803 482.578C125.479 481.972 124.725 481.568 123.862 481.568C122.461 481.568 121.437 482.528 121.437 483.84C121.437 485.103 122.407 486.063 123.916 486.063C125.102 486.063 125.857 485.457 126.072 484.649H123.862V483.74H127.204V484.144Z" fill="#352934"/>
<path d="M128.013 481.215C128.013 480.861 128.282 480.609 128.659 480.609C129.037 480.609 129.306 480.861 129.306 481.215C129.306 481.568 129.037 481.82 128.659 481.82C128.282 481.82 128.013 481.568 128.013 481.215ZM128.174 482.477H129.198V486.971H128.174V482.477Z" fill="#352934"/>
<path d="M132.864 482.426V483.487C132.163 483.437 131.408 483.74 131.408 484.75V487.022H130.384V482.527H131.408V483.285C131.678 482.628 132.271 482.426 132.864 482.426Z" fill="#352934"/>
<path d="M133.618 480.457H134.642V486.971H133.618V480.457Z" fill="#352934"/>
<path d="M453.461 475.963H452.922V472.125H453.515L454.808 474.145L456.102 472.125H456.695V475.963H456.156V472.932L454.808 475.054H454.754L453.407 472.983V475.963H453.461ZM462.893 474.044C462.893 475.155 461.977 476.064 460.737 476.064C459.551 476.064 458.635 475.155 458.635 474.044C458.635 472.933 459.551 472.023 460.737 472.023C461.977 472.023 462.893 472.933 462.893 474.044ZM462.354 474.044C462.354 473.185 461.654 472.529 460.791 472.529C459.875 472.529 459.228 473.185 459.228 474.044C459.228 474.902 459.929 475.559 460.791 475.559C461.707 475.559 462.354 474.902 462.354 474.044ZM466.882 474.448L467.852 476.013H467.259L466.343 474.549H465.373V476.013H464.834V472.175H466.451C467.151 472.175 467.744 472.731 467.744 473.387C467.744 473.791 467.367 474.245 466.882 474.448ZM466.451 474.044C466.882 474.044 467.205 473.74 467.205 473.336C467.205 472.932 466.882 472.63 466.451 472.63H465.373V474.044H466.451ZM472.11 475.508H470.224V474.296H471.948V473.841H470.224V472.68H472.11V472.175H469.685V476.013H472.164V475.508H472.11ZM455.024 485.911L453.676 482.528H452.544L454.431 487.022H455.617L457.503 482.528H456.371L455.024 485.911ZM458.15 486.972H459.174V482.477H458.15V486.972ZM458.689 480.609C458.312 480.609 458.042 480.861 458.042 481.215C458.042 481.568 458.312 481.821 458.689 481.821C459.066 481.821 459.336 481.518 459.336 481.215C459.336 480.861 459.012 480.609 458.689 480.609ZM460.953 480.609C460.575 480.609 460.306 480.861 460.306 481.215C460.306 481.568 460.575 481.821 460.953 481.821C461.33 481.821 461.6 481.518 461.6 481.215C461.654 480.861 461.33 480.609 460.953 480.609ZM460.468 487.174C460.468 487.78 460.198 488.032 459.551 487.982V488.891C460.845 488.992 461.492 488.386 461.492 487.174V482.528H460.468V487.174ZM466.451 482.477H467.475V486.972H466.451V486.315C466.073 486.77 465.534 487.073 464.78 487.073C463.486 487.073 462.408 486.063 462.408 484.699C462.408 483.386 463.486 482.326 464.78 482.326C465.534 482.326 466.073 482.629 466.451 483.083V482.477ZM466.451 484.75C466.451 483.942 465.804 483.336 464.941 483.336C464.079 483.336 463.432 483.942 463.432 484.75C463.432 485.558 464.079 486.164 464.941 486.164C465.804 486.164 466.451 485.558 466.451 484.75ZM470.709 485.76L469.307 482.528H468.175L470.224 486.921L470.17 487.022C469.954 487.628 469.577 487.931 468.876 487.881V488.79C469.954 488.84 470.763 488.285 471.194 487.123L473.026 482.528H471.948L470.709 485.76ZM475.56 485.911L474.212 482.528H473.08L474.967 487.022H476.153L478.039 482.528H476.907L475.56 485.911ZM483.16 484.75C483.16 484.901 483.16 485.002 483.106 485.154H479.333C479.494 485.861 480.087 486.214 480.842 486.214C481.435 486.214 481.866 485.962 482.082 485.659L482.944 486.113C482.513 486.719 481.812 487.073 480.842 487.073C479.279 487.073 478.255 486.063 478.255 484.699C478.255 483.386 479.279 482.326 480.788 482.326C482.136 482.376 483.16 483.437 483.16 484.75ZM482.082 484.346C481.92 483.588 481.327 483.235 480.734 483.235C479.98 483.235 479.441 483.639 479.279 484.346H482.082ZM485.046 483.235V482.477H484.022V486.972H485.046V484.699C485.046 483.689 485.855 483.386 486.501 483.437V482.376C485.962 482.427 485.37 482.629 485.046 483.235ZM492.538 482.376C491.891 482.376 491.406 482.629 491.083 483.083C490.813 482.629 490.328 482.376 489.735 482.376C489.142 482.376 488.657 482.578 488.388 483.033V482.477H487.364V486.972H488.388V484.447C488.388 483.639 488.873 483.285 489.466 483.285C490.005 483.285 490.382 483.639 490.382 484.245V486.972H491.406V484.447C491.406 483.639 491.837 483.285 492.43 483.285C492.969 483.285 493.347 483.639 493.347 484.245V486.972H494.371V484.194C494.317 483.083 493.616 482.376 492.538 482.376ZM499.222 482.477H500.246V486.972H499.222V486.315C498.845 486.77 498.305 487.073 497.551 487.073C496.257 487.073 495.179 486.063 495.179 484.699C495.179 483.386 496.257 482.326 497.551 482.326C498.305 482.326 498.845 482.629 499.222 483.083V482.477ZM499.222 484.75C499.222 483.942 498.575 483.336 497.713 483.336C496.85 483.336 496.203 483.942 496.203 484.75C496.203 485.558 496.85 486.164 497.713 486.164C498.575 486.164 499.222 485.558 499.222 484.75ZM502.079 485.76C501.701 485.76 501.378 486.063 501.378 486.416C501.378 486.77 501.701 487.073 502.079 487.073C502.456 487.073 502.779 486.77 502.779 486.416C502.779 486.012 502.456 485.76 502.079 485.76ZM505.744 486.113C504.881 486.113 504.288 485.507 504.288 484.699C504.288 483.891 504.935 483.285 505.744 483.285C506.337 483.285 506.768 483.538 506.983 483.992L507.846 483.487C507.469 482.78 506.66 482.326 505.744 482.326C504.288 482.326 503.21 483.336 503.21 484.699C503.21 486.012 504.288 487.073 505.744 487.073C506.66 487.073 507.469 486.618 507.9 485.911L507.037 485.457C506.768 485.861 506.283 486.113 505.744 486.113ZM513.344 484.75C513.344 486.063 512.212 487.123 510.81 487.123C509.409 487.123 508.277 486.113 508.277 484.75C508.277 483.437 509.409 482.376 510.81 482.376C512.212 482.376 513.344 483.386 513.344 484.75ZM512.32 484.75C512.32 483.942 511.673 483.336 510.81 483.336C509.948 483.336 509.301 483.942 509.301 484.75C509.301 485.558 509.948 486.164 510.81 486.164C511.673 486.164 512.32 485.558 512.32 484.75Z" fill="#352934"/>
<path opacity="0.34" d="M445.483 413.039H111.735C107.477 413.039 104.027 409.807 104.027 405.818C104.027 401.828 107.477 398.596 111.735 398.596H445.483C449.742 398.596 453.191 401.828 453.191 405.818C453.191 409.807 449.742 413.039 445.483 413.039Z" fill="#010A43"/>
<path d="M470.008 317.897H402.148C395.249 317.897 389.643 312.645 389.643 306.181C389.643 299.717 395.249 294.465 402.148 294.465H440.04C448.232 294.465 454.862 288.254 454.862 280.578C454.862 272.902 448.232 266.69 440.04 266.69H406.352C397.135 266.69 389.643 259.671 389.643 251.035C389.643 242.4 397.135 235.38 406.352 235.38H443.813C452.005 235.38 458.689 229.118 458.689 221.442C458.689 213.766 452.005 207.504 443.813 207.504H389.697H376.761C368.568 207.504 361.885 201.242 361.885 193.566C361.885 185.89 368.568 179.629 376.761 179.629H391.422C399.615 179.629 406.298 173.367 406.298 165.691C406.298 158.015 399.615 151.753 391.422 151.753H383.067H381.666H293.108H290.09H197.597H176.415C168.222 151.753 161.538 158.015 161.538 165.691C161.538 173.367 168.222 179.629 176.415 179.629H182.721C190.914 179.629 197.597 185.89 197.597 193.566C197.597 201.242 190.914 207.504 182.721 207.504H125.964C119.658 207.504 114.537 212.302 114.537 218.21C114.537 224.119 119.658 228.916 125.964 228.916H185.739C192.315 228.916 197.651 233.916 197.651 240.077C197.651 246.238 192.315 251.237 185.739 251.237H90.3364C82.1436 251.237 75.46 257.499 75.46 265.175C75.46 272.851 82.1436 279.113 90.3364 279.113H182.721C190.914 279.113 197.597 285.375 197.597 293.051C197.597 300.727 190.914 306.989 182.721 306.989H126.934C113.783 306.989 103.111 316.988 103.111 329.31C103.111 341.632 113.783 351.631 126.934 351.631H197.597H228.967H246.592H389.697H470.008C479.926 351.631 487.957 344.107 487.957 334.815C487.957 325.422 479.926 317.897 470.008 317.897Z" fill="#010A43"/>
<path d="M344.102 405.83H353.804V269.076H344.102V405.83Z" fill="#2F262D"/>
<path d="M307.176 296.637C305.613 293.355 307.176 289.466 310.734 287.951C311.65 287.597 312.62 287.395 313.59 287.395C316.339 287.395 318.872 288.91 320.004 291.284L354.5 364.105L341.672 369.458L307.176 296.637Z" fill="#FC9F6F"/>
<path d="M249.506 405.83H259.208V269.076H249.506L249.506 405.83Z" fill="#2F262D"/>
<path d="M294.402 278.003C261.038 278.003 234.034 254.167 234.034 224.826C234.034 217.251 235.866 210.03 239.1 203.465C217.864 211.696 203.041 230.432 203.041 252.147C203.041 281.538 230.045 305.323 263.409 305.323C288.149 305.323 309.386 292.243 318.711 273.508C311.219 276.386 303.026 278.003 294.402 278.003Z" fill="#F2F2F2"/>
<path d="M260.984 292.395C279.232 292.395 294.024 279.666 294.024 263.963C294.024 248.261 279.232 235.532 260.984 235.532C242.736 235.532 227.943 248.261 227.943 263.963C227.943 279.666 242.736 292.395 260.984 292.395Z" fill="#3B323A"/>
<path d="M201.478 269.064H127.581C124.779 269.064 122.461 266.892 122.461 264.266V259.721C122.461 257.096 124.779 254.924 127.581 254.924H201.478C204.281 254.924 206.599 257.096 206.599 259.721V264.266C206.599 266.892 204.281 269.064 201.478 269.064Z" fill="#AFAFAF"/>
<path d="M289.605 242.299C279.256 242.299 270.848 234.421 270.848 224.725V207.151C270.848 200.435 265.08 195.031 257.912 195.031V224.725C257.912 241.137 272.087 254.419 289.605 254.419H315.854V242.299H289.605Z" fill="#EF9067"/>
<path d="M293.863 149.531C291.922 172.508 270.362 197.96 250.204 194.728C230.908 191.648 217.648 163.115 224.17 143.117C228.213 130.795 239.316 123.069 248.263 116.857C257.534 110.393 263.787 106.05 270.901 107.111C285.023 109.131 295.426 131.25 293.863 149.531Z" fill="#603936"/>
<path d="M266.643 214.928C266.266 214.524 263.248 211.242 262.709 210.787C261.307 205.384 258.45 199.425 259.043 192.456C255.001 189.678 248.317 186.143 240.717 186.648C238.454 186.8 236.082 187.305 234.896 187.557C228.32 188.971 224.17 191.244 222.823 192.001C220.99 193.062 220.074 193.567 218.996 194.577C216.085 197.405 215.384 200.839 215.007 202.859C211.773 220.433 214.306 237.3 214.63 238.764C215.223 241.441 216.031 243.814 216.031 243.814C217.379 247.804 218.996 250.278 219.427 251.389C221.583 256.843 226.488 268.307 231.662 277.043C235.435 277.599 244.005 281.134 249.665 279.316C258.289 276.538 276.076 270.327 282.436 269.064C274.513 260.732 267.236 251.44 265.35 240.128C264.865 237.199 264.433 234.32 264.11 231.492C264.865 231.139 269.446 228.967 270.362 224.624C271.333 219.928 267.398 215.736 266.643 214.928Z" fill="#F05364"/>
<path d="M247.179 204.268C251.881 203.04 254.455 197.884 252.928 192.753C251.401 187.622 246.351 184.459 241.648 185.687C236.946 186.916 234.372 192.071 235.899 197.202C237.426 202.333 242.476 205.497 247.179 204.268Z" fill="#EF9067"/>
<path d="M243.035 183.517C246 190.082 250.904 192.354 254.031 194.071C260.121 197.404 271.548 197.101 271.548 197.101C271.925 194.778 272.303 192.758 274.243 188.92C277.046 183.214 279.633 181.85 283.244 176.699C288.634 168.922 291.329 159.529 289.605 158.62C288.365 157.913 284.969 161.549 282.759 163.67C276.453 169.73 262.331 178.719 243.035 183.517Z" fill="#603936"/>
<path d="M242.82 197.96H240.556C235.597 197.96 231.608 194.223 231.608 189.577V157.711H249.503V191.647C249.503 195.132 246.485 197.96 242.82 197.96Z" fill="#EF9067"/>
<path d="M142.071 405.83H151.773L151.773 269.076H142.071L142.071 405.83Z" fill="#2F262D"/>
<path d="M201.744 405.83H211.446L211.446 269.076H201.744L201.744 405.83Z" fill="#494149"/>
<path d="M402.499 405.83H412.201V269.076H402.499V405.83Z" fill="#494149"/>
<path opacity="0.71" d="M231.608 161.095C232.794 170.74 239.909 178.719 249.503 181.749V155.792H231.608V161.095Z" fill="#D36B46"/>
<path d="M257.912 180.487C244.76 180.487 234.142 170.538 234.142 158.216V131.047C234.142 129.886 235.112 128.977 236.352 128.977H270.147C276.507 128.977 281.681 133.825 281.681 139.784V158.216C281.681 170.538 271.063 180.487 257.912 180.487Z" fill="#FC9F6F"/>
<path d="M281.681 155.035C281.412 155.641 280.765 156.045 280.064 156.045H269.608C268.638 156.045 267.829 155.288 267.829 154.379V148.874C267.829 147.965 268.638 147.208 269.608 147.208H280.064C280.765 147.208 281.412 147.612 281.681 148.218V146.096C281.196 145.844 280.657 145.693 280.064 145.693H269.608C267.721 145.693 266.212 147.106 266.212 148.874V154.379C266.212 156.146 267.721 157.56 269.608 157.56H280.064C280.657 157.56 281.196 157.409 281.681 157.156V155.035Z" fill="#DD9883"/>
<path d="M260.66 156.752H250.204C248.749 156.752 247.617 155.641 247.617 154.328V148.824C247.617 147.46 248.802 146.4 250.204 146.4H260.66C262.116 146.4 263.248 147.511 263.248 148.824V154.328C263.248 155.692 262.062 156.752 260.66 156.752Z" stroke="#DD9883" stroke-width="3" stroke-miterlimit="10" stroke-linecap="round" stroke-linejoin="round"/>
<path opacity="0.6" d="M248.91 162.459V135.29C248.91 134.128 249.88 133.219 251.12 133.219L270.632 126.806C268.53 124.23 273.866 129.028 270.147 129.028H236.352C235.112 129.028 234.142 129.937 234.142 131.098V158.267C234.142 170.589 244.76 180.537 257.911 180.537C258.181 180.537 258.45 180.537 258.774 180.537C252.791 176.447 248.91 169.882 248.91 162.459Z" fill="#EF9067"/>
<path d="M280.064 155.742H269.608C268.153 155.742 267.021 154.631 267.021 153.318V147.814C267.021 146.45 268.206 145.39 269.608 145.39H280.064C281.52 145.39 282.652 146.501 282.652 147.814V153.318C282.652 154.682 281.466 155.742 280.064 155.742Z" stroke="#F6CDF7" stroke-width="3" stroke-miterlimit="10" stroke-linecap="round" stroke-linejoin="round"/>
<path d="M264.11 169.276C261.092 169.276 258.666 167.003 258.666 164.226V161.852H269.446V164.226C269.446 167.003 267.075 169.276 264.11 169.276Z" fill="#FCFAFA"/>
<path d="M254.354 149.935H259.205" stroke="#161515" stroke-width="3" stroke-miterlimit="10" stroke-linecap="round" stroke-linejoin="round"/>
<path d="M272.68 149.935H277.531" stroke="#161515" stroke-width="3" stroke-miterlimit="10" stroke-linecap="round" stroke-linejoin="round"/>
<path d="M260.66 155.742H250.204C248.749 155.742 247.617 154.631 247.617 153.318V147.814C247.617 146.45 248.802 145.39 250.204 145.39H260.66C262.116 145.39 263.248 146.501 263.248 147.814V153.318C263.248 154.682 262.062 155.742 260.66 155.742Z" stroke="#F6CDF7" stroke-width="3" stroke-miterlimit="10" stroke-linecap="round" stroke-linejoin="round"/>
<path d="M267.883 108.524C261.361 100.646 250.258 100.798 248.21 100.596C246.377 100.242 236.298 100.697 228.913 102.515C211.881 106.757 200.023 121.2 200.023 137.764V158.974C200.023 173.215 211.234 190.486 225.625 194.98C233.603 197.505 242.442 199.424 244.544 199.121C233.872 180.588 235.327 169.629 238.346 163.216C245.568 147.561 266.751 148.116 271.979 130.694C272.087 130.189 275.375 117.614 267.883 108.524Z" fill="#754743"/>
<path d="M334.396 254.267C334.935 252.954 335.204 251.54 335.204 250.076C335.204 243.359 329.437 237.956 322.268 237.956C315.099 237.956 309.332 243.359 309.332 250.076C309.332 251.54 309.602 252.954 310.141 254.267H334.396Z" fill="#EF9067"/>
<path d="M292.893 254.924C291.815 250.278 285.832 246.743 278.555 246.743C271.333 246.743 265.296 250.278 264.218 254.924H292.893Z" fill="#F4EFF0"/>
<path d="M221.906 219.574C226.252 219.574 229.776 214.396 229.776 208.01C229.776 201.623 226.252 196.445 221.906 196.445C217.56 196.445 214.037 201.623 214.037 208.01C214.037 214.396 217.56 219.574 221.906 219.574Z" fill="#EF9067"/>
<path d="M245.73 242.703C235.381 242.703 226.973 234.825 226.973 225.129V203.666C226.973 200.333 224.062 197.606 220.505 197.606C216.947 197.606 214.037 200.333 214.037 203.666V225.129C214.037 241.542 228.213 254.823 245.73 254.823H271.979V242.703H258.828H245.73Z" fill="#FC9F6F"/>
<path d="M354.716 254.924H294.348C293.593 254.924 292.947 254.318 292.947 253.611C292.947 252.904 293.593 252.298 294.348 252.298H354.77C355.524 252.298 356.171 252.904 356.171 253.611C356.171 254.318 355.524 254.924 354.716 254.924Z" fill="white"/>
<path d="M354.716 253.611H294.348C293.809 253.611 293.378 253.359 293.108 252.955C293 253.157 292.893 253.359 292.893 253.611C292.893 254.318 293.539 254.924 294.294 254.924H354.716C355.47 254.924 356.117 254.318 356.117 253.611C356.117 253.359 356.063 253.157 355.902 252.955C355.686 253.308 355.255 253.611 354.716 253.611Z" fill="#F4EFF0"/>
<path d="M306.044 254.924H294.348C293.593 254.924 292.947 254.318 292.947 253.611C292.947 252.904 293.593 252.298 294.348 252.298H306.044C306.799 252.298 307.446 252.904 307.446 253.611C307.446 254.318 306.853 254.924 306.044 254.924Z" fill="#F4EFF0"/>
<path d="M350.458 252.298H346.038V251.339C346.038 250.834 346.469 250.379 347.062 250.379H349.434C349.973 250.379 350.458 250.783 350.458 251.339V252.298V252.298Z" fill="#F4EFF0"/>
<path d="M345.068 252.298H340.648V251.339C340.648 250.834 341.079 250.379 341.672 250.379H344.044C344.583 250.379 345.068 250.783 345.068 251.339V252.298V252.298Z" fill="#F4EFF0"/>
<path d="M339.678 252.298H335.258V251.339C335.258 250.834 335.689 250.379 336.282 250.379H338.654C339.193 250.379 339.678 250.783 339.678 251.339V252.298V252.298Z" fill="#F4EFF0"/>
<path d="M334.288 252.298H329.868V251.339C329.868 250.834 330.299 250.379 330.892 250.379H333.264C333.803 250.379 334.288 250.783 334.288 251.339V252.298V252.298Z" fill="#F4EFF0"/>
<path d="M328.898 252.298H324.478V251.339C324.478 250.834 324.909 250.379 325.502 250.379H327.874C328.413 250.379 328.898 250.783 328.898 251.339V252.298V252.298Z" fill="#F4EFF0"/>
<path d="M323.508 252.298H319.088V251.339C319.088 250.834 319.519 250.379 320.112 250.379H322.484C323.023 250.379 323.508 250.783 323.508 251.339V252.298V252.298Z" fill="#F4EFF0"/>
<path d="M318.118 252.298H313.698V251.339C313.698 250.834 314.129 250.379 314.722 250.379H317.094C317.633 250.379 318.118 250.783 318.118 251.339V252.298V252.298Z" fill="#F4EFF0"/>
<path d="M312.728 252.298H308.308V251.339C308.308 250.834 308.739 250.379 309.332 250.379H311.704C312.243 250.379 312.728 250.783 312.728 251.339V252.298V252.298Z" fill="#F4EFF0"/>
<path d="M307.338 252.298H302.918V251.339C302.918 250.834 303.349 250.379 303.942 250.379H306.314C306.853 250.379 307.338 250.783 307.338 251.339V252.298V252.298Z" fill="#F4EFF0"/>
<path d="M301.948 252.298H297.528V251.339C297.528 250.834 297.959 250.379 298.552 250.379H300.924C301.463 250.379 301.948 250.783 301.948 251.339V252.298V252.298Z" fill="#F4EFF0"/>
<path d="M294.348 254.924H306.044C306.799 254.924 307.446 254.318 307.446 253.611H292.893C292.893 254.318 293.539 254.924 294.348 254.924Z" fill="#E2E2E2"/>
<path d="M299.576 295.93H256.941L256.618 274.72H309.44C312.997 274.72 315.854 277.396 315.854 280.729C315.8 289.163 308.524 295.93 299.576 295.93Z" fill="#352934"/>
<path d="M265.296 372.841L291.437 290.022C292.3 287.244 295.049 285.325 298.175 285.325C298.822 285.325 299.522 285.426 300.169 285.578C303.888 286.588 305.99 290.274 304.912 293.759L278.771 376.578L265.296 372.841Z" fill="#EF9067"/>
<path d="M287.017 366.075L265.296 360.065L292.677 273.356C294.456 267.751 300.762 264.519 306.745 266.185C312.728 267.852 316.177 273.761 314.399 279.366L287.017 366.075Z" fill="#352934"/>
<path d="M394.925 230.381H304.373C302.595 230.381 301.139 229.017 301.139 227.351L312.351 166.751C312.351 165.085 313.806 163.721 315.585 163.721H406.137C407.915 163.721 409.371 165.085 409.371 166.751L398.159 227.351C398.159 229.017 396.758 230.381 394.925 230.381Z" fill="#CECECE"/>
<path d="M400.315 230.381H309.763C307.985 230.381 306.529 229.017 306.529 227.351L317.74 166.751C317.74 165.085 319.196 163.721 320.974 163.721H411.527C413.305 163.721 414.761 165.085 414.761 166.751L403.549 227.351C403.549 229.017 402.148 230.381 400.315 230.381Z" fill="#F4EFF0"/>
<path d="M372.665 251.641L365.226 216.342H351.967C350.35 216.342 349.11 217.756 349.434 219.22L356.01 250.379C356.279 251.54 355.309 252.601 354.069 252.601H345.984C344.529 252.601 343.397 253.712 343.397 255.025H356.98H369.592C371.587 255.076 373.042 253.409 372.665 251.641Z" fill="#CECECE"/>
<path d="M373.365 255.075H359.621L351.644 217.2C351.536 216.746 351.913 216.392 352.398 216.392H367.868L375.521 252.702C375.737 253.914 374.713 255.075 373.365 255.075Z" fill="#F4EFF0"/>
<path d="M357.034 255.075H359.621L358.92 251.641H356.279L357.034 255.075Z" fill="#F4EFF0"/>
<path d="M357.034 255.075C358.381 255.075 359.405 253.914 359.136 252.651L358.92 251.641H356.009L357.034 255.075Z" fill="#CECECE"/>
<path d="M368.892 198.263C365.981 198.263 363.609 196.041 363.609 193.314C363.609 192.405 363.879 191.597 364.31 190.89C363.555 190.688 362.747 190.536 361.885 190.536C357.303 190.536 353.638 194.021 353.638 198.263C353.638 202.505 357.357 205.99 361.885 205.99C366.466 205.99 370.131 202.505 370.131 198.263C370.131 198.213 370.131 198.162 370.131 198.112C369.7 198.213 369.323 198.263 368.892 198.263Z" fill="#CECECE"/>
<path d="M306.206 284.365L261.792 295.324C249.719 298.303 237.483 290.274 231.608 276.992L300.439 263.812C306.475 262.347 312.674 265.731 314.237 271.387C315.854 277.093 312.243 282.901 306.206 284.365Z" fill="#3B323A"/>
<path d="M350.889 347.491L330.191 356.126L293.917 279.669C291.383 274.316 293.971 268.054 299.684 265.68C305.397 263.307 312.081 265.731 314.614 271.084L350.889 347.491Z" fill="#3B323A"/>
<path d="M197.005 269.064H427.804C430.607 269.064 432.925 266.892 432.925 264.266V259.721C432.925 257.096 430.607 254.924 427.804 254.924H197.005C194.202 254.924 191.884 257.096 191.884 259.721V264.266C191.884 266.892 194.148 269.064 197.005 269.064Z" fill="#F2F2F2"/>
<path d="M384.63 372.084L338.761 379.912C336.983 380.215 335.312 379.154 334.935 377.589L334.611 376.225C333.695 372.286 336.39 368.297 340.81 367.236L374.228 359.307C380.696 357.792 387.218 360.57 388.403 365.671L388.835 367.489C389.32 369.559 387.433 371.63 384.63 372.084Z" fill="#535452"/>
<path d="M386.409 368.195L335.15 376.932C335.042 376.932 334.935 376.982 334.827 376.982L334.989 377.588C335.366 379.204 337.037 380.214 338.815 379.911L384.684 372.084C387.487 371.629 389.428 369.559 388.942 367.488L388.889 367.337C388.134 367.741 387.325 368.044 386.409 368.195Z" fill="#FFFDFD"/>
<path d="M289.928 399.102L251.605 374.255C250.15 373.296 249.719 371.427 250.689 370.064L251.497 368.852C253.815 365.468 258.774 364.408 262.655 366.63L292.246 383.194C298.013 386.426 300.493 392.739 297.474 397.082L296.396 398.647C295.21 400.415 292.246 400.617 289.928 399.102Z" fill="#424441"/>
<path d="M294.132 397.536L251.282 369.761C251.174 369.711 251.12 369.609 251.012 369.559L250.689 370.064C249.773 371.427 250.15 373.296 251.605 374.255L289.928 399.102C292.246 400.617 295.21 400.415 296.396 398.647L296.504 398.496C295.695 398.344 294.887 397.991 294.132 397.536Z" fill="#CECECE"/>
<path d="M183.799 254.924H175.067C170.647 254.924 167.036 251.54 167.036 247.399V225.129H191.83V247.399C191.884 251.54 188.273 254.924 183.799 254.924Z" fill="#FF6161"/>
<path d="M169.839 228.159C164.072 228.159 159.436 232.553 159.436 237.905C159.436 243.258 164.126 247.652 169.839 247.652C175.552 247.652 180.242 243.258 180.242 237.905C180.242 232.553 175.552 228.159 169.839 228.159ZM169.839 245.531C165.365 245.531 161.7 242.097 161.7 237.905C161.7 233.714 165.365 230.28 169.839 230.28C174.313 230.28 177.978 233.714 177.978 237.905C177.924 242.147 174.313 245.531 169.839 245.531Z" fill="#F4A36C"/>
<path d="M183.799 254.924H175.067C170.647 254.924 167.036 251.54 167.036 247.399V225.129H191.83V247.399C191.884 251.54 188.273 254.924 183.799 254.924Z" fill="#F7BC8B"/>
<path d="M178.786 247.854C176.307 247.854 174.313 245.985 174.313 243.662V225.129H167.036V247.399C167.036 251.54 170.647 254.924 175.067 254.924H183.799C188.057 254.924 191.561 251.793 191.83 247.854H178.786Z" fill="#EFA573"/>
<path d="M281.574 254.924C282.113 253.611 282.382 252.197 282.382 250.732C282.382 244.016 276.615 238.612 269.446 238.612C262.277 238.612 256.51 244.016 256.51 250.732C256.51 252.197 256.78 253.611 257.319 254.924H281.574Z" fill="#FC9F6F"/>
<path opacity="0.77" d="M176.738 221.089C178.673 221.089 180.242 219.619 180.242 217.806C180.242 215.994 178.673 214.524 176.738 214.524C174.803 214.524 173.235 215.994 173.235 217.806C173.235 219.619 174.803 221.089 176.738 221.089Z" fill="#F2F2F2"/>
<path opacity="0.77" d="M183.206 211.242C186.094 211.242 188.434 209.048 188.434 206.343C188.434 203.638 186.094 201.445 183.206 201.445C180.319 201.445 177.978 203.638 177.978 206.343C177.978 209.048 180.319 211.242 183.206 211.242Z" fill="#F2F2F2"/>
<path d="M132.055 179.629C140.271 179.629 146.931 173.388 146.931 165.691C146.931 157.993 140.271 151.753 132.055 151.753C123.839 151.753 117.179 157.993 117.179 165.691C117.179 173.388 123.839 179.629 132.055 179.629Z" fill="#010A43"/>
</svg>
