<svg width="425" height="346" viewBox="0 0 425 346" fill="none" xmlns="http://www.w3.org/2000/svg">
<g clip-path="url(#clip0)">
<path opacity="0.1" d="M249.248 58.4723C222.356 57.5149 196.74 48.6262 172.283 38.8993C147.826 29.1723 123.602 18.3944 97.3539 13.2416C80.4718 9.92693 61.163 9.45888 47.5634 18.7263C34.4707 27.6618 30.2408 43.0436 27.968 57.3319C26.2561 68.0801 25.2505 79.3899 29.9416 89.453C33.1951 96.4397 38.9748 102.312 42.9679 109.026C56.875 132.309 47.0482 161.022 31.9776 183.757C24.914 194.424 16.7076 204.606 11.2562 215.95C5.80467 227.294 3.27837 240.31 8.04842 251.892C12.7811 263.381 24.0539 271.993 36.2615 278.056C61.0633 290.374 90.2778 293.897 118.786 295.893C181.873 300.314 245.292 298.399 308.545 296.485C331.955 295.774 355.464 295.055 378.492 291.349C391.281 289.289 404.482 286.026 413.769 278.137C425.553 268.125 428.474 251.169 420.579 238.616C407.328 217.558 370.718 212.329 361.444 189.726C356.349 177.289 361.585 163.435 368.989 151.895C384.878 127.148 411.508 105.435 412.913 77.1475C413.877 57.7149 401.071 38.261 381.276 29.0659C360.529 19.3943 331.751 20.6198 316.452 36.5718C300.688 53.0089 272.99 59.3148 249.248 58.4723Z" fill="#E661C0"/>
<path d="M180.934 293.808L38.713 293.098L24.5816 259.155L74.5508 255.441L65.8417 218.226L164.675 205.108L70.0342 171.417L78.3942 169.383L230.575 194.807L222.194 252.883L210.215 284.8L180.934 293.808Z" fill="#010A43"/>
<path d="M40.8945 278.882C40.8945 278.882 49.6202 277.452 54.8556 283.766C54.8556 283.766 51.0163 286.864 42.756 282.575L40.8945 278.882Z" fill="#010A43"/>
<path d="M39.9804 278.741C39.9804 278.741 34.4125 285.758 37.1549 293.57C37.1549 293.57 41.6922 291.71 42.1867 282.239L39.9804 278.741Z" fill="#010A43"/>
<path d="M34.9776 267.206C34.9776 267.206 38.4679 260.649 52.429 269.827C52.429 269.827 50.5675 274.235 44.4014 273.878C38.2352 273.52 36.6064 270.661 34.9776 267.206Z" fill="#010A43"/>
<path d="M34.076 266.734C34.076 266.734 26.8336 265.883 26.1314 282.86C26.1314 282.86 30.7228 283.834 33.9845 278.465C37.2463 273.095 35.9083 270.082 34.076 266.734Z" fill="#010A43"/>
<path d="M29.8585 253.19C29.8585 253.19 33.9305 241.633 48.7061 249.854C48.7061 249.854 45.3321 260.457 31.371 257.121L29.8585 253.19Z" fill="#010A43"/>
<path d="M25.3212 235.915C25.3212 235.915 32.9998 224.239 46.6119 235.064C46.6119 235.064 41.8418 246.024 26.4846 240.067L25.3212 235.915Z" fill="#010A43"/>
<path d="M23.6924 219.473C23.6924 219.473 32.6508 208.746 46.1299 219.473C46.1299 219.473 37.6369 228.885 23.6924 222.213V219.473Z" fill="#010A43"/>
<path d="M22.2963 203.504C22.2963 203.504 31.371 192.305 44.285 202.908C44.285 202.908 34.0469 212.797 22.2963 206.125V203.504Z" fill="#010A43"/>
<path d="M23.1106 189.326C23.1106 189.326 32.6674 174.91 44.7504 184.68C44.7504 184.68 34.5122 197.071 23.1106 192.067V189.326Z" fill="#010A43"/>
<path d="M25.3212 172.766C25.3212 172.766 35.443 158.469 47.1936 169.43C47.1936 169.43 35.2103 181.821 25.3212 175.387V172.766Z" fill="#010A43"/>
<path d="M28.6951 157.963C28.6951 157.963 40.6784 144.526 51.1326 149.878C51.1326 149.878 38.6466 164.15 28.1716 161.529L28.6951 157.963Z" fill="#010A43"/>
<path d="M32.8834 143.93C32.8834 143.93 46.7116 127.471 54.7559 132.969C54.7559 132.969 44.5676 145.734 31.9028 147.01L32.8834 143.93Z" fill="#010A43"/>
<path d="M38.9291 127.654C38.9291 127.654 51.0329 114.217 59.8749 117.553C59.8749 117.553 49.5204 131.492 37.3045 131.85L38.9291 127.654Z" fill="#010A43"/>
<path d="M44.4014 112.43C44.4014 112.43 57.7808 99.5629 63.5979 101.827C63.5979 101.827 53.9415 116.123 43.8197 115.289L44.4014 112.43Z" fill="#010A43"/>
<path d="M49.7531 98.3715C49.7531 98.3715 61.2711 82.9981 67.5577 84.1895C67.5577 84.1895 60.573 97.8949 49.7531 99.933V98.3715Z" fill="#010A43"/>
<path d="M55.562 79.4154C55.562 79.4154 65.7419 67.6333 71.2433 67.6588C71.2433 67.6588 63.2073 83.4024 55.1423 83.2577L55.562 79.4154Z" fill="#010A43"/>
<path d="M59.0024 66.7951L68.8375 42.2522C68.8375 42.2522 69.3278 64.4378 57.7517 71.3479L59.0024 66.7951Z" fill="#010A43"/>
<path d="M62.9954 39.729C62.9954 39.729 64.6242 19.2326 63.5771 17.5647C63.5771 17.5647 70.6076 34.606 62.9289 48.7836L62.9954 39.729Z" fill="#010A43"/>
<path d="M29.4763 252.918C29.4763 252.918 19.2796 246.446 12.6772 262.279C12.6772 262.279 21.7519 268.448 30.6771 256.956L29.4763 252.918Z" fill="#010A43"/>
<path d="M24.9929 235.255C24.9929 235.255 12.4861 229.413 6.41962 245.944C6.41962 245.944 16.0802 252.752 26.1314 239.433L24.9929 235.255Z" fill="#010A43"/>
<path d="M23.1107 220.456C23.1107 220.456 14.1523 209.729 0.673126 220.456C0.673126 220.456 9.16614 229.868 23.1107 223.196V220.456Z" fill="#010A43"/>
<path d="M21.9888 203.504C21.9888 203.504 12.914 192.305 0 202.908C0 202.908 10.2382 212.797 21.9888 206.125V203.504Z" fill="#010A43"/>
<path d="M23.1107 189.735C23.1107 189.735 16.745 173.587 2.90857 180.531C2.90857 180.531 10.3877 194.849 22.5456 192.416L23.1107 189.735Z" fill="#010A43"/>
<path d="M26.1231 172.685C26.1231 172.685 19.7949 156.257 5.76312 163.873C5.76312 163.873 14.3559 178.931 25.4998 175.221L26.1231 172.685Z" fill="#010A43"/>
<path d="M30.0455 158.044C30.0455 158.044 27.5524 140.032 15.9182 138.42C15.9182 138.42 18.3863 157.414 28.479 161.29L30.0455 158.044Z" fill="#010A43"/>
<path d="M33.1784 143.964C33.1784 143.964 32.2062 122.263 22.5871 121.506C22.5871 121.506 22.9112 137.977 32.094 147.036L33.1784 143.964Z" fill="#010A43"/>
<path d="M39.9263 127.046C39.9263 127.046 37.0593 109 27.8765 106.796C27.8765 106.796 29.015 124.272 39.0164 131.475L39.9263 127.046Z" fill="#010A43"/>
<path d="M45.49 112.579C45.49 112.579 45.3944 93.7803 39.7851 91.0188C39.7851 91.0188 36.3072 108.039 43.8654 114.979L45.49 112.579Z" fill="#010A43"/>
<path d="M50.1811 98.1587C50.1811 98.1587 49.3958 78.8027 43.587 76.0752C43.587 76.0752 41.6008 91.3933 49.3127 99.4267L50.1811 98.1587Z" fill="#010A43"/>
<path d="M56.3722 80.96C56.3722 80.96 56.339 65.2165 52.1922 61.5231C52.1922 61.5231 48.0703 78.7687 54.2074 84.1257L56.3722 80.96Z" fill="#010A43"/>
<path d="M58.5162 66.0207L54.4816 39.8183C54.4816 39.8183 49.0011 61.2891 58.7074 70.7522L58.5162 66.0207Z" fill="#010A43"/>
<path d="M59.3015 39.9758C59.3015 39.9758 48.947 22.3601 49.159 20.4028C49.159 20.4028 50.2601 38.8652 63.2863 48.0603L59.3015 39.9758Z" fill="#010A43"/>
<path d="M60.5148 34.7719C60.5148 34.7719 50.7421 9.75247 46.321 7.72709C46.321 7.72709 60.2822 14.9946 61.3292 34.0571L60.5148 34.7719Z" fill="#010A43"/>
<path d="M55.0924 83.4066L54.4235 83.1981C62.6713 55.6555 64.7281 38.0951 60.2198 33.6911L60.6977 33.172C65.4802 37.8185 63.5397 55.1874 55.0924 83.4066Z" fill="#444053"/>
<path d="M32.3807 147.895L31.3918 147.534C32.2685 145.011 33.2117 142.449 34.2006 139.926C42.81 117.953 50.1396 97.512 54.839 81.8195L55.6991 81.394C50.9914 97.1162 43.7906 118.34 35.1729 140.343C34.1881 142.819 33.2491 145.368 32.3807 147.895Z" fill="#444053"/>
<path d="M53.1894 299.493C53.0564 299.344 39.6895 283.928 30.3696 257.611C24.9087 242.203 21.8696 226.006 21.3655 209.623C20.7256 189.143 24.9223 166.277 32.1106 145.504L32.8918 146.44C16.7534 193.062 23.1647 233.013 31.6702 257.07C40.8903 283.149 54.1077 298.395 54.2365 298.548L53.1894 299.493Z" fill="#444053"/>
<path d="M262.074 266.763C262.074 266.763 252.655 278.537 260.134 296.336L184.927 329.737L177.709 331.286L174.385 316.394L176.608 297.599V287.328L262.074 266.763Z" fill="#D5D6DB"/>
<path d="M24.5816 259.155L128.675 239.723L266.604 262.223L180.934 293.808L24.5816 259.155Z" fill="#010A43"/>
<path d="M24.5816 259.155L128.675 239.723L266.604 262.223L180.934 293.808L24.5816 259.155Z" fill="#010A43"/>
<path d="M24.5816 259.151C24.5816 259.151 14.8462 278.039 26.0649 295.485L180.427 329.737C180.427 329.737 170.845 314.692 180.921 293.808L24.5816 259.151Z" fill="#010A43"/>
<path opacity="0.1" d="M24.5816 259.151C24.5816 259.151 14.8462 278.039 26.0649 295.485L180.427 329.737C180.427 329.737 170.845 314.692 180.921 293.808L24.5816 259.151Z" fill="black"/>
<path opacity="0.1" d="M29.1812 265.7C29.1812 265.7 23.6176 279.52 29.1812 288.464Z" fill="black"/>
<path d="M180.427 329.737L266.604 292.081C266.604 292.081 271.423 293.144 268.307 296.761C265.191 300.378 182.089 333.354 182.089 333.354L26.0649 295.485L180.427 329.737Z" fill="#010A43"/>
<path opacity="0.1" d="M180.427 329.737L266.604 292.081C266.604 292.081 271.423 293.144 268.307 296.761C265.191 300.378 182.089 333.354 182.089 333.354L26.0649 295.485L180.427 329.737Z" fill="black"/>
<path opacity="0.1" d="M173.363 297.612C173.363 297.612 165.053 307.824 173.363 323.142Z" fill="black"/>
<path opacity="0.1" d="M213.596 297.439L176.321 310.174L176.452 310.578L213.727 297.843L213.596 297.439Z" fill="black"/>
<path opacity="0.1" d="M221.062 296.172L176.309 313.599L176.457 313.997L221.209 296.57L221.062 296.172Z" fill="black"/>
<path opacity="0.1" d="M227.918 296.111L176.559 317.639L176.716 318.033L228.076 296.505L227.918 296.111Z" fill="black"/>
<path opacity="0.1" d="M235.374 294.268L177.158 321.198L177.329 321.586L235.546 294.655L235.374 294.268Z" fill="black"/>
<path opacity="0.1" d="M241.639 294.276L177.619 322.932L177.785 323.322L241.805 294.666L241.639 294.276Z" fill="black"/>
<path opacity="0.1" d="M255.34 291.894L178.584 325.842L178.749 326.233L255.505 292.284L255.34 291.894Z" fill="black"/>
<path opacity="0.3" d="M63.2531 261.232L136.383 245.488L180.934 254.211L121.009 273.997L63.2531 261.232Z" fill="white"/>
<path d="M266.604 262.223C266.604 262.223 270.385 263.785 268.166 266.197C265.947 268.61 180.921 293.808 180.921 293.808L266.604 262.223Z" fill="#010A43"/>
<path d="M303.33 225.839C303.33 225.839 293.915 237.608 301.394 255.411L226.187 288.813L218.969 290.37L215.645 275.478L217.902 256.687V246.403L303.33 225.839Z" fill="#D5D6DB"/>
<path d="M65.8417 218.226L169.931 198.798L307.864 221.299L222.194 252.883L65.8417 218.226Z" fill="#3A3768"/>
<path d="M65.8251 218.226C65.8251 218.226 56.0855 237.114 67.3043 254.56L221.666 288.813C221.666 288.813 212.089 273.754 222.177 252.879L65.8251 218.226Z" fill="#3A3768"/>
<path opacity="0.1" d="M65.8251 218.226C65.8251 218.226 56.0855 237.114 67.3043 254.56L221.666 288.813C221.666 288.813 212.089 273.754 222.177 252.879L173.363 242.059L65.8251 218.226Z" fill="black"/>
<path opacity="0.1" d="M70.4372 224.775C70.4372 224.775 64.8777 238.591 70.4372 247.539Z" fill="black"/>
<path d="M221.683 288.813L307.864 251.156C307.864 251.156 312.679 252.22 309.563 255.836C306.447 259.453 223.345 292.43 223.345 292.43L67.3209 254.56L221.683 288.813Z" fill="#3A3768"/>
<path opacity="0.1" d="M221.683 288.813L307.864 251.156C307.864 251.156 312.679 252.22 309.563 255.836C306.447 259.453 223.345 292.43 223.345 292.43L67.3209 254.56L221.683 288.813Z" fill="black"/>
<path opacity="0.1" d="M214.619 256.687C214.619 256.687 206.309 266.899 214.619 282.217Z" fill="black"/>
<path opacity="0.1" d="M254.855 256.519L217.58 269.254L217.711 269.658L254.986 256.923L254.855 256.519Z" fill="black"/>
<path opacity="0.1" d="M262.326 255.25L217.573 272.677L217.721 273.075L262.474 255.648L262.326 255.25Z" fill="black"/>
<path opacity="0.1" d="M269.177 255.183L217.817 276.711L217.974 277.105L269.334 255.577L269.177 255.183Z" fill="black"/>
<path opacity="0.1" d="M276.638 253.34L218.421 280.271L218.592 280.658L276.809 253.728L276.638 253.34Z" fill="black"/>
<path opacity="0.1" d="M282.896 253.344L218.876 281.999L219.043 282.389L283.062 253.734L282.896 253.344Z" fill="black"/>
<path opacity="0.1" d="M296.6 250.961L219.845 284.91L220.01 285.3L296.765 251.352L296.6 250.961Z" fill="black"/>
<path opacity="0.45" d="M104.513 220.307L177.643 204.564L222.194 213.286L162.269 233.072L104.513 220.307Z" fill="white"/>
<path d="M307.864 221.299C307.864 221.299 311.641 222.86 309.426 225.269C307.211 227.677 222.194 252.879 222.194 252.879L307.864 221.299Z" fill="#3A3768"/>
<path d="M307.236 179.021C307.236 179.021 297.817 200.155 305.296 217.954L230.089 241.995L222.888 243.556L219.564 228.664L221.787 209.87V199.585L307.236 179.021Z" fill="#D5D6DB"/>
<path d="M69.7599 171.413L173.853 151.98L311.786 174.481L226.112 206.066L69.7599 171.413Z" fill="#010A43"/>
<path d="M69.7599 171.409C69.7599 171.409 60.0079 190.297 71.2267 207.742L225.589 241.995C225.589 241.995 216.007 226.936 226.095 206.066L69.7599 171.409Z" fill="#010A43"/>
<path opacity="0.1" d="M69.7599 171.409C69.7599 171.409 60.0079 190.297 71.2267 207.742L225.589 241.995C225.589 241.995 216.007 226.936 226.095 206.066L69.7599 171.409Z" fill="black"/>
<path opacity="0.1" d="M74.3596 177.957C74.3596 177.957 68.7959 191.777 74.3596 200.721Z" fill="black"/>
<path d="M225.605 241.995L311.782 213.699C311.782 213.699 316.602 214.763 313.485 218.38C310.369 221.996 227.267 245.612 227.267 245.612L71.2433 207.742L225.605 241.995Z" fill="#010A43"/>
<path opacity="0.1" d="M225.605 241.995L311.782 213.699C311.782 213.699 316.602 214.763 313.485 218.38C310.369 221.996 227.267 245.612 227.267 245.612L71.2433 207.742L225.605 241.995Z" fill="black"/>
<path opacity="0.1" d="M218.542 209.87C218.542 209.87 210.231 220.082 218.542 235.4Z" fill="black"/>
<path opacity="0.1" d="M258.779 209.701L221.504 222.436L221.635 222.839L258.91 210.104L258.779 209.701Z" fill="black"/>
<path opacity="0.1" d="M266.247 208.433L221.494 225.861L221.642 226.258L266.395 208.831L266.247 208.433Z" fill="black"/>
<path opacity="0.1" d="M273.094 208.369L221.734 229.896L221.891 230.29L273.251 208.762L273.094 208.369Z" fill="black"/>
<path opacity="0.1" d="M280.56 206.522L222.344 233.452L222.515 233.84L280.731 206.91L280.56 206.522Z" fill="black"/>
<path opacity="0.1" d="M286.821 206.53L222.801 235.185L222.968 235.575L286.987 206.92L286.821 206.53Z" fill="black"/>
<path opacity="0.1" d="M300.524 204.15L223.768 238.098L223.933 238.489L300.689 204.54L300.524 204.15Z" fill="black"/>
<path opacity="0.3" d="M108.431 173.489L181.561 157.746L226.112 166.469L166.187 186.254L108.431 173.489Z" fill="white"/>
<path d="M311.782 174.481C311.782 174.481 315.563 176.042 313.344 178.455C311.125 180.868 226.112 206.066 226.112 206.066L311.782 174.481Z" fill="#010A43"/>
<path d="M128.983 45.3158C128.983 45.3158 113.193 44.3414 115.038 55.6852C115.038 55.6852 114.668 57.6894 116.442 58.5999C116.442 58.5999 116.472 57.7489 118.063 58.0425C118.631 58.1424 119.208 58.171 119.783 58.1276C120.558 58.0733 121.294 57.7627 121.881 57.2426V57.2426C121.881 57.2426 126.323 55.3619 128.052 47.9241C128.052 47.9241 129.332 46.303 129.298 45.886L126.622 47.0518C126.622 47.0518 127.532 49.0219 126.818 50.6601C126.818 50.6601 126.73 47.1242 126.215 47.205C126.111 47.205 124.832 47.8901 124.832 47.8901C124.832 47.8901 126.398 51.3239 125.214 53.8173C125.214 53.8173 125.663 49.5878 124.341 48.1369L122.463 49.2602C122.463 49.2602 124.296 52.8046 123.053 55.698C123.053 55.698 123.373 51.26 122.068 49.5325L120.365 50.8941C120.365 50.8941 122.089 54.3875 121.038 56.7873C121.038 56.7873 120.901 51.6217 119.999 51.2303C119.999 51.2303 118.508 52.5748 118.283 53.128C118.283 53.128 119.463 55.681 118.728 57.0043C118.728 57.0043 118.283 53.562 117.897 53.545C117.897 53.545 116.413 55.8257 116.26 57.3745C116.331 55.9306 116.771 54.5311 117.535 53.3152C116.68 53.4808 115.892 53.8995 115.267 54.5194C115.267 54.5194 115.495 52.9067 117.905 52.7663C117.905 52.7663 119.131 51.0345 119.459 50.9324C119.459 50.9324 117.062 50.7239 115.611 51.3834C115.611 51.3834 116.891 49.8644 119.895 50.5324L121.557 49.1283C121.557 49.1283 118.408 48.7028 117.07 49.1751C117.07 49.1751 118.611 47.8305 122.01 48.8092L123.843 47.6901C123.843 47.6901 121.154 47.0986 119.555 47.3114C119.555 47.3114 121.242 46.3795 124.379 47.388L125.683 46.788C125.683 46.788 123.718 46.3923 123.14 46.3285C122.563 46.2647 122.534 46.103 122.534 46.103C123.781 45.8932 125.061 46.0404 126.232 46.5285C126.232 46.5285 129.037 45.4945 128.983 45.3158Z" fill="#010A43"/>
<path opacity="0.1" d="M351.114 91.9422C351.114 91.9422 335.325 90.9678 337.17 102.312C337.17 102.312 336.8 104.316 338.574 105.226C338.574 105.226 338.603 104.375 340.194 104.669C340.763 104.766 341.34 104.795 341.915 104.754C342.682 104.696 343.411 104.386 343.992 103.869V103.869C343.992 103.869 348.438 101.988 350.163 94.5505C350.163 94.5505 351.442 92.9293 351.409 92.5123L348.741 93.6782C348.741 93.6782 349.651 95.6483 348.937 97.2864C348.937 97.2864 348.849 93.7505 348.338 93.8314C348.235 93.8314 346.951 94.5164 346.951 94.5164C346.951 94.5164 348.517 97.9502 347.337 100.444C347.337 100.444 347.786 96.2142 346.46 94.7632L344.582 95.8865C344.582 95.8865 346.415 99.431 345.172 102.324C345.172 102.324 345.492 97.8864 344.187 96.1589L342.488 97.5205C342.488 97.5205 344.208 101.014 343.157 103.414C343.157 103.414 343.02 98.2481 342.118 97.8566C342.118 97.8566 340.631 99.2012 340.402 99.7543C340.402 99.7543 341.582 102.307 340.851 103.631C340.851 103.631 340.402 100.188 340.02 100.171C340.02 100.171 338.537 102.452 338.383 104.001C338.455 102.556 338.896 101.156 339.663 99.9416C338.807 100.108 338.017 100.526 337.39 101.146C337.39 101.146 337.622 99.5331 340.028 99.3927C340.028 99.3927 341.254 97.6609 341.582 97.5545C341.582 97.5545 339.189 97.3503 337.735 98.0098C337.735 98.0098 339.014 96.4908 342.019 97.1588L343.681 95.7546C343.681 95.7546 340.527 95.3291 339.193 95.8014C339.193 95.8014 340.73 94.4569 344.133 95.4355L345.962 94.3164C345.962 94.3164 343.273 93.725 341.674 93.9378C341.674 93.9378 343.361 93.0059 346.498 94.0143L347.807 93.4144C347.807 93.4144 345.837 93.0187 345.26 92.9548C344.682 92.891 344.653 92.7293 344.653 92.7293C345.9 92.5168 347.181 92.6642 348.351 93.1548C348.351 93.1548 351.164 92.1209 351.114 91.9422Z" fill="#010A43"/>
<path opacity="0.1" d="M155.575 115.396C155.575 115.396 148.694 100.788 139.935 107.988C139.935 107.988 138.045 108.635 138.136 110.664C138.136 110.664 138.863 110.277 139.383 111.843C139.577 112.396 139.833 112.925 140.147 113.417C140.572 114.085 141.198 114.592 141.93 114.864C141.93 114.864 145.698 117.919 152.883 115.834C152.883 115.834 154.89 116.187 155.218 115.94L152.924 114.124C152.924 114.124 151.678 115.898 149.941 116.055C149.941 116.055 152.916 114.255 152.596 113.838C152.529 113.753 151.349 112.932 151.349 112.932C151.349 112.932 149.185 116.008 146.484 116.166C146.484 116.166 150.306 114.506 150.897 112.613L149.027 111.481C149.027 111.481 146.895 114.851 143.825 115.149C143.825 115.149 147.764 113.273 148.599 111.264L146.613 110.413C146.613 110.413 144.473 113.655 141.913 113.889C141.913 113.889 146.251 111.247 146.143 110.247C146.143 110.247 144.269 109.575 143.687 109.639C143.687 109.639 142.1 111.932 140.604 111.932C140.604 111.932 143.318 109.851 143.151 109.515C143.151 109.515 140.484 109.303 139.079 109.941C140.345 109.297 141.753 109.003 143.164 109.09C142.604 108.406 141.862 107.905 141.028 107.647C141.028 107.647 142.516 107.069 143.808 109.149C143.808 109.149 145.885 109.4 146.131 109.643C146.131 109.643 145.138 107.405 143.87 106.43C143.87 106.43 145.79 106.826 146.667 109.834L148.682 110.651C148.682 110.651 147.523 107.622 146.455 106.664C146.455 106.664 148.349 107.384 149.176 110.919L151.021 112.009C151.021 112.009 150.219 109.315 149.255 107.992C149.255 107.992 150.872 109.047 151.541 112.341L152.692 113.217C152.692 113.217 152.068 111.264 151.861 110.72C151.653 110.175 151.757 110.064 151.757 110.064C152.547 111.074 153.048 112.29 153.203 113.575C153.203 113.575 155.426 115.523 155.575 115.396Z" fill="#010A43"/>
<path opacity="0.1" d="M315.039 71.3054C315.039 71.3054 308.163 56.6979 299.4 63.8974C299.4 63.8974 297.513 64.5442 297.601 66.5738C297.601 66.5738 298.332 66.1909 298.847 67.7524C299.041 68.3082 299.299 68.8382 299.616 69.3311C300.039 69.9973 300.664 70.5038 301.394 70.7735V70.7735C301.394 70.7735 305.167 73.8286 312.347 71.7479C312.347 71.7479 314.354 72.0968 314.686 71.85L312.405 70.0289C312.405 70.0289 311.159 71.8075 309.426 71.9649C309.426 71.9649 312.397 70.1608 312.077 69.7438C312.01 69.6587 310.83 68.8375 310.83 68.8375C310.83 68.8375 308.67 71.9138 305.965 72.0713C305.965 72.0713 309.792 70.4118 310.382 68.5226L308.483 67.3993C308.483 67.3993 306.355 70.765 303.281 71.0671C303.281 71.0671 307.22 69.1864 308.059 67.178L306.069 66.327C306.069 66.327 303.929 69.5736 301.373 69.8034C301.373 69.8034 305.707 67.161 305.599 66.1653C305.599 66.1653 303.729 65.4888 303.148 65.5569C303.148 65.5569 301.56 67.8461 300.06 67.8461C300.06 67.8461 302.778 65.7654 302.612 65.4292C302.612 65.4292 299.944 65.2165 298.535 65.8547C299.801 65.2104 301.209 64.917 302.62 65.0037C302.062 64.3199 301.321 63.8184 300.488 63.5613C300.488 63.5613 301.976 62.9826 303.268 65.0633C303.268 65.0633 305.346 65.3186 305.591 65.5611C305.591 65.5611 304.598 63.3187 303.326 62.3443C303.326 62.3443 305.246 62.7443 306.123 65.7696L308.142 66.5866C308.142 66.5866 306.983 63.5528 305.915 62.5954C305.915 62.5954 307.81 63.3145 308.632 66.8504L310.481 67.9397C310.481 67.9397 309.675 65.2505 308.711 63.9229C308.711 63.9229 310.332 64.9782 310.997 68.2716L312.148 69.1481C312.148 69.1481 311.528 67.195 311.317 66.6504C311.105 66.1058 311.213 65.9994 311.213 65.9994C312.001 67.0106 312.5 68.2257 312.654 69.5098C312.654 69.5098 314.911 71.4415 315.039 71.3054Z" fill="#010A43"/>
<path opacity="0.1" d="M337.016 143.56C337.016 143.56 330.139 128.948 321.364 136.147C321.364 136.147 319.477 136.794 319.564 138.824C319.564 138.824 320.296 138.441 320.811 140.002C321.003 140.558 321.26 141.088 321.575 141.581C321.999 142.247 322.623 142.754 323.354 143.023C323.354 143.023 327.127 146.083 334.311 143.998C334.311 143.998 336.314 144.351 336.646 144.1L334.352 142.283C334.352 142.283 333.106 144.062 331.369 144.219C331.369 144.219 334.34 142.415 334.02 141.998C333.954 141.913 332.773 141.092 332.773 141.092C332.773 141.092 330.613 144.168 327.908 144.33C327.908 144.33 331.735 142.666 332.325 140.777L330.451 139.645C330.451 139.645 328.323 143.015 325.249 143.313C325.249 143.313 329.188 141.432 330.027 139.424L328.037 138.573C328.037 138.573 325.897 141.815 323.341 142.049C323.341 142.049 327.679 139.407 327.571 138.407C327.571 138.407 325.697 137.73 325.116 137.798C325.116 137.798 323.528 140.088 322.028 140.088C322.028 140.088 324.746 138.007 324.58 137.671C324.58 137.671 321.912 137.458 320.503 138.096C321.771 137.452 323.18 137.159 324.592 137.245C324.034 136.56 323.291 136.059 322.456 135.803C322.456 135.803 323.944 135.22 325.236 137.305C325.236 137.305 327.314 137.556 327.559 137.798C327.559 137.798 326.566 135.56 325.298 134.582C325.298 134.582 327.218 134.982 328.095 138.007L330.11 138.824C330.11 138.824 328.951 135.79 327.883 134.837C327.883 134.837 329.778 135.552 330.6 139.092L332.449 140.177C332.449 140.177 331.643 137.488 330.679 136.16C330.679 136.16 332.3 137.215 332.969 140.513L334.12 141.364C334.12 141.364 333.496 139.411 333.289 138.866C333.081 138.322 333.185 138.215 333.185 138.215C333.975 139.225 334.474 140.441 334.627 141.726C334.627 141.726 336.887 143.687 337.016 143.56Z" fill="#010A43"/>
<path opacity="0.1" d="M83.9122 333.66C89.1879 333.66 93.4648 333.171 93.4648 332.567C93.4648 331.963 89.1879 331.473 83.9122 331.473C78.6365 331.473 74.3596 331.963 74.3596 332.567C74.3596 333.171 78.6365 333.66 83.9122 333.66Z" fill="#010A43"/>
<path opacity="0.1" d="M21.2907 315.075C26.5665 315.075 30.8433 314.585 30.8433 313.981C30.8433 313.377 26.5665 312.888 21.2907 312.888C16.015 312.888 11.7382 313.377 11.7382 313.981C11.7382 314.585 16.015 315.075 21.2907 315.075Z" fill="#010A43"/>
<path opacity="0.1" d="M131.646 346.004C136.922 346.004 141.199 345.515 141.199 344.911C141.199 344.307 136.922 343.817 131.646 343.817C126.37 343.817 122.093 344.307 122.093 344.911C122.093 345.515 126.37 346.004 131.646 346.004Z" fill="#010A43"/>
<path opacity="0.1" d="M376.257 319.117C381.532 319.117 385.809 318.627 385.809 318.023C385.809 317.419 381.532 316.93 376.257 316.93C370.981 316.93 366.704 317.419 366.704 318.023C366.704 318.627 370.981 319.117 376.257 319.117Z" fill="#010A43"/>
<path opacity="0.1" d="M296.765 313.811C302.041 313.811 306.318 313.321 306.318 312.717C306.318 312.113 302.041 311.624 296.765 311.624C291.49 311.624 287.213 312.113 287.213 312.717C287.213 313.321 291.49 313.811 296.765 313.811Z" fill="#010A43"/>
<path opacity="0.1" d="M245.342 339.69C251.581 339.69 256.64 338.8 256.64 337.703C256.64 336.605 251.581 335.716 245.342 335.716C239.102 335.716 234.044 336.605 234.044 337.703C234.044 338.8 239.102 339.69 245.342 339.69Z" fill="#010A43"/>
<path d="M250.382 317.73C250.382 317.73 234.651 326.053 242.778 335.856C242.778 335.856 243.543 337.984 245.753 337.835C245.753 337.835 245.313 337.009 247 336.35C247.6 336.112 248.171 335.802 248.699 335.426C249.414 334.921 249.948 334.19 250.22 333.346V333.346C250.22 333.346 253.436 328.937 250.943 320.781C250.943 320.781 251.267 318.474 250.985 318.1L249.073 320.785C249.073 320.785 251.047 322.142 251.275 324.138C251.275 324.138 249.198 320.789 248.782 321.159C248.691 321.236 247.835 322.627 247.835 322.627C247.835 322.627 251.259 325.006 251.512 328.095C251.512 328.095 249.584 323.768 247.503 323.151L246.31 325.329C246.31 325.329 250.05 327.661 250.465 331.167C250.465 331.167 248.292 326.721 246.073 325.823L245.196 328.125C245.196 328.125 248.803 330.473 249.135 333.392C249.135 333.392 246.119 328.512 245.034 328.665C245.034 328.665 244.353 330.827 244.444 331.495C244.444 331.495 246.991 333.239 247.037 334.954C247.037 334.954 244.685 331.912 244.324 332.112C244.324 332.112 244.174 335.171 244.897 336.762C244.897 336.762 243.651 334.49 243.854 332.112C243.126 332.772 242.601 333.635 242.346 334.597C242.346 334.597 241.669 332.916 243.9 331.367C243.9 331.367 244.112 328.988 244.37 328.695C244.37 328.695 241.955 329.903 240.929 331.384C240.929 331.384 241.307 329.176 244.582 328.078L245.413 325.746C245.413 325.746 242.138 327.167 241.129 328.418C241.129 328.418 241.856 326.227 245.67 325.176L246.8 323.049C246.8 323.049 243.892 324.053 242.471 325.176C242.471 325.176 243.572 323.291 247.149 322.423L248.068 321.083C248.068 321.083 245.957 321.853 245.367 322.129C244.777 322.406 244.66 322.27 244.66 322.27C245.739 321.336 247.049 320.726 248.446 320.508C248.446 320.508 250.527 317.874 250.382 317.73Z" fill="#010A43"/>
<path d="M297.073 160.537C294.355 152.976 279.397 152.265 272.907 154.193C268.295 155.567 258.572 157.116 253.378 157.895L253.041 157.567C253.714 157.363 253.731 156.861 253.648 156.116C253.6 155.135 253.613 154.151 253.689 153.172C256.872 154.184 259.706 151.789 259.706 151.789C263.446 150.087 262.44 142.802 263.155 140.811C263.691 139.322 264.268 130.548 264.526 126.174H264.58L264.609 124.706C264.646 124.072 264.663 123.701 264.663 123.701C264.663 123.701 265.029 113.004 265.743 110.839C266.408 108.847 266.948 98.814 267.032 97.2226C267.032 97.0864 267.032 97.0141 267.032 97.0141L266.977 96.0865C267.015 95.41 267.032 94.6568 267.027 93.8654C267.027 90.2274 266.658 85.6447 266.612 84.9044C266.612 84.798 266.612 84.6703 266.612 84.5172C266.641 82.9641 266.45 75.1859 259.989 72.2457C257.608 71.1564 254.745 69.8587 251.973 68.5949C251.259 62.2763 249.626 55.9916 249.767 49.6261C249.767 48.6687 249.85 47.7114 249.942 46.7582C249.942 47.0348 249.913 47.3157 249.908 47.6092C249.908 48.2262 249.908 48.8475 249.908 49.4644C250.154 41.5033 253.091 33.4996 252.817 25.7087C252.792 26.4704 252.738 27.2363 252.667 28.0022C252.811 25.367 252.541 22.7253 251.87 20.1772C251.62 19.2794 251.284 18.3518 250.565 17.7519C249.885 17.2687 249.106 16.9527 248.288 16.8285C246.322 16.3132 244.324 15.9322 242.309 15.6882C242.002 14.7282 241.548 13.8246 240.962 13.0118C236.749 7.08884 230.508 1.52329 223.129 0.246788C219.427 -0.391463 215.168 0.140413 212.65 2.85085C212.387 3.08896 212.14 3.34483 211.91 3.61675C210.555 5.27195 209.974 7.44626 208.586 9.0972C208.495 9.20783 208.391 9.30995 208.291 9.41632C205.573 11.9055 201.339 12.4246 198.319 14.6585C197.786 15.0595 197.287 15.505 196.827 15.9903C195.61 17.2255 194.518 18.5842 193.569 20.0453C192.211 22.0026 190.815 24.0408 190.382 26.3768C189.514 31.0573 192.626 35.4952 193.204 40.2055C194.492 50.7452 183.103 60.0977 185.259 70.4969C185.835 73.0517 187.105 75.3872 188.924 77.2326C184.482 81.3514 180.701 85.3469 180.701 85.3469V85.5852H179.999L180.069 86.4362H179.999L180.385 91.0528L179.999 97.7757C179.999 97.7757 179.999 97.8481 179.999 97.9843V98.0183V98.2013C179.999 98.2013 179.999 98.2736 179.999 98.4098H180.024C180.153 100.873 180.664 109.732 181.27 111.6C181.985 113.766 182.346 124.463 182.346 124.463C182.346 124.463 183.136 139.581 183.859 141.581C184.582 143.581 183.556 150.844 187.308 152.559C188.405 153.421 189.705 153.973 191.076 154.159C190.885 155.75 191.006 156.903 191.625 157.265C191.89 157.424 192.19 157.512 192.497 157.52C192.243 157.907 192.016 158.312 191.82 158.733C190.331 158.574 188.867 158.221 187.466 157.682C183.435 155.98 170.06 152.15 166.175 154.844C162.29 157.537 152.941 159.98 157.258 170.821C161.575 181.663 163.586 181.935 163.586 181.935C164.915 182.923 166.081 184.123 167.039 185.488C168.335 187.484 180.414 192.05 183.435 192.05C184.719 192.029 186.003 192.095 187.279 192.245C187.279 192.245 184 195.19 184.436 196.9C184.873 198.611 183.439 212.303 183.439 212.303C183.439 212.303 186.763 215.733 188.184 211.235L188.234 211.304C188.5 211.674 189.938 213.346 192.643 211.235C193.75 210.375 194.926 209.612 196.158 208.955L209.255 207.057C210.62 206.97 211.989 206.96 213.356 207.027C215.434 207.202 217.474 205.942 218.758 204.968C221.471 206.023 224.521 207.176 225.971 207.597C228.913 208.448 242.433 212.163 245.595 211.001C246.253 210.734 246.837 210.308 247.299 209.759L250.316 209.857L248.903 210.146C248.903 210.146 251.653 210.193 255.393 210.244L255.235 210.338L259.926 210.295C266.791 210.359 274.502 210.38 275.516 210.146C277.103 209.784 285.351 210.04 287.782 210.146H288.459C288.459 210.146 297.522 208.295 293.782 198.879C290.907 191.645 282.069 189.543 278.146 188.965C279.252 188.739 280.203 188.565 280.835 188.463C283.573 188.037 288.891 185.484 289.324 184.612C289.756 183.74 294.214 181.208 295.365 179.765C296.516 178.323 299.803 168.098 297.073 160.537ZM222.011 181.697L221.566 181.846L221.267 181.948L220.694 182.527C220.237 182.212 219.747 181.88 219.235 181.54C220.137 181.595 221.064 181.65 222.011 181.697Z" fill="url(#paint0_linear)"/>
<path d="M248.504 136.832C248.504 136.832 254.861 153.852 258.476 152.15C262.091 150.448 261.11 143.215 261.8 141.232C262.49 139.249 263.254 124.212 263.254 124.212C263.254 124.212 263.604 113.575 264.293 111.422C264.933 109.443 265.453 99.465 265.54 97.8949C265.54 97.7587 265.54 97.6864 265.54 97.6864L264.854 85.3469L260.973 84.3555L251.973 87.7595L250.727 95.0483L250.241 97.8949L250.033 99.1076L248.504 136.832Z" fill="#E0A27D"/>
<path opacity="0.1" d="M250.598 133.982C250.598 133.982 256.665 139.066 258.493 139.513C260.321 139.96 261.443 143.926 261.443 143.926" fill="black"/>
<path d="M198.788 137.577C198.788 137.577 192.431 154.597 188.816 152.895C185.201 151.193 186.182 143.96 185.492 141.977C184.802 139.994 184.038 124.957 184.038 124.957C184.038 124.957 183.689 114.319 182.999 112.166C182.359 110.188 181.84 100.21 181.752 98.6395C181.752 98.5034 181.752 98.431 181.752 98.431L182.442 86.0915L186.323 85.1001L195.323 88.5041L196.569 95.7929L197.056 98.6395L197.263 99.8522L198.788 137.577Z" fill="#E0A27D"/>
<path d="M240.185 46.4944H225.996V69.1438H240.185V46.4944Z" fill="#3E373A"/>
<path opacity="0.1" d="M240.185 46.4944H225.996V69.1438H240.185V46.4944Z" fill="black"/>
<path d="M196.295 154.529C196.295 154.529 191.446 159.988 193.245 160.98C195.044 161.971 206.683 180.553 206.683 180.553C206.683 180.553 244.91 185.374 252.119 178.14C259.328 170.907 259.183 157.984 259.183 157.984C259.183 157.984 253.39 159.261 252.759 158.567C252.127 157.873 248.658 154.529 248.658 154.529C248.658 154.529 199.619 151.482 196.295 154.529Z" fill="#4B4B5B"/>
<path opacity="0.02" d="M196.295 154.529C196.295 154.529 191.446 159.988 193.245 160.98C195.044 161.971 206.683 180.553 206.683 180.553C206.683 180.553 244.91 185.374 252.119 178.14C259.328 170.907 259.183 157.984 259.183 157.984C259.183 157.984 253.39 159.261 252.759 158.567C252.127 157.873 248.658 154.529 248.658 154.529C248.658 154.529 199.619 151.482 196.295 154.529Z" fill="black"/>
<path d="M265.112 85.5256L252.647 95.7376L248.878 96.0184L247.494 96.1206L224.255 97.8651L200.155 96.061L196.569 95.7929L191.999 95.4525L182.442 86.0915C182.442 86.0915 189.207 78.6708 195.132 73.6627C197.467 71.6841 199.673 70.0842 201.281 69.4545L201.555 69.3566C202.567 68.9527 203.47 68.308 204.19 67.4759C208.868 62.5358 213.194 50.3452 213.194 50.3452C213.194 50.3452 233.832 39.4269 231.339 53.7492C228.846 68.0716 240.618 64.5314 240.618 64.5314L244.498 66.344L246.032 67.0631L249.942 68.897L258.763 73.0414C265.685 76.305 265.112 85.5256 265.112 85.5256Z" fill="#E0A27D"/>
<path opacity="0.1" d="M223.287 62.0082C233.538 62.0082 241.847 53.4984 241.847 43.0011C241.847 32.5037 233.538 23.994 223.287 23.994C213.036 23.994 204.726 32.5037 204.726 43.0011C204.726 53.4984 213.036 62.0082 223.287 62.0082Z" fill="black"/>
<path opacity="0.1" d="M265.141 99.065H181.752C181.752 98.9289 181.752 98.8565 181.752 98.8565L182.442 86.517C182.442 86.517 189.207 79.0963 195.132 74.0881L247.486 71.9606L249.921 69.3311L258.742 73.4754C265.669 76.7348 265.112 85.9554 265.112 85.9554C265.112 85.9554 266.059 96.6397 265.141 99.065Z" fill="black"/>
<path d="M265.141 98.6395H181.752C181.752 98.5034 181.752 98.431 181.752 98.431L182.442 86.0915C182.442 86.0915 189.207 78.6708 195.132 73.6626L247.486 71.5351L249.921 68.9056L258.742 73.0499C265.669 76.3093 265.112 85.5299 265.112 85.5299C265.112 85.5299 266.059 96.2142 265.141 98.6395Z" fill="#9EEAE5"/>
<path opacity="0.1" d="M209.92 64.0378C209.92 64.0378 223.075 81.2025 240.597 63.6847C258.119 46.1668 242.537 102.758 242.537 102.758L204.726 107.354L209.92 64.0378Z" fill="black"/>
<path d="M209.92 64.8888C209.92 64.8888 223.075 82.0535 240.597 64.5357C258.119 47.0178 242.537 103.609 242.537 103.609L204.726 108.205L209.92 64.8888Z" fill="#9EEAE5"/>
<path opacity="0.1" d="M246.011 67.9014L247.403 89.6402L248.894 96.8737L250.033 102.405C250.033 102.405 252.942 144.955 252.111 147.083C251.279 149.21 252.526 150.912 252.701 152.044C252.875 153.176 252.526 156.018 252.663 157.295C252.8 158.571 252.663 159.137 249.48 158.682C246.298 158.227 241.86 157.435 241.86 157.435C241.86 157.435 230.641 158.286 226.764 156.869C222.888 155.452 215.546 155.448 215.546 155.448C215.546 155.448 204.464 155.733 200.866 155.308C197.267 154.882 195.323 159.848 192.971 158.427C190.619 157.005 195.738 143.253 197.4 139.279C199.062 135.305 195.186 125.238 195.186 125.238L200.172 96.912L201.281 90.4912V70.3055L201.555 70.2076C202.567 69.8037 203.47 69.159 204.19 68.3269L205.436 88.6403L244.494 90.0614V67.1993" fill="black"/>
<path d="M246.011 67.0504L247.403 88.7892L248.894 96.0227L250.033 101.554C250.033 101.554 252.942 144.104 252.111 146.232C251.279 148.359 252.526 150.061 252.701 151.193C252.875 152.325 252.526 155.167 252.663 156.444C252.8 157.72 252.663 158.286 249.48 157.831C246.298 157.376 241.86 156.584 241.86 156.584C241.86 156.584 230.641 157.435 226.764 156.018C222.888 154.601 215.546 154.597 215.546 154.597C215.546 154.597 204.464 154.882 200.866 154.457C197.267 154.031 195.323 158.997 192.971 157.576C190.619 156.154 195.738 142.402 197.4 138.428C199.062 134.454 195.186 124.387 195.186 124.387L200.172 96.061L201.281 89.6402V69.4545L201.555 69.3566C202.567 68.9527 203.47 68.308 204.19 67.4759L205.436 87.7893L244.494 89.2104V66.3483" fill="#9EEAE5"/>
<path opacity="0.1" d="M250.503 21.6835C250.266 20.7942 249.937 19.8709 249.256 19.2752C248.605 18.7967 247.854 18.4818 247.062 18.3561C245.167 17.8457 243.24 17.4676 241.295 17.2243C241.017 16.2794 240.596 15.385 240.048 14.5734C235.976 8.68446 229.951 3.13169 222.863 1.87646C219.152 1.21693 214.852 1.80838 212.475 4.8039C211.17 6.45059 210.609 8.63341 209.292 10.2503C206.754 13.3905 202.17 13.7777 198.971 16.2073C197.263 17.4838 196.025 19.3347 194.816 21.1304C193.507 23.0749 192.161 25.1003 191.745 27.4235C190.914 32.0657 193.91 36.4909 194.463 41.1757C195.709 51.6558 184.74 60.9529 186.813 71.2926C188.022 77.3219 193.461 81.5684 199.087 83.7215C201.069 84.4831 203.334 85.2405 204.26 87.1893C204.676 88.0403 204.747 89.0232 205.137 89.8827C206.45 92.7506 210.767 92.8612 213.086 90.772C215.404 88.6828 216.136 85.3043 216.41 82.1514C217.524 68.3822 212.139 54.7789 212.766 40.9757C212.953 36.8015 214.1 32.0657 217.752 30.1765C222.668 27.6235 228.58 31.8785 233.99 31.0658C236.55 37.4446 237.094 44.4847 235.544 51.1962C234.684 54.8683 233.197 58.4297 233.089 62.2167C232.926 67.9822 235.964 73.2499 238.59 78.3474C239.153 79.3006 239.53 80.3571 239.699 81.4578C239.741 82.5746 239.538 83.6868 239.105 84.7129C237.622 88.8019 235.062 92.5974 234.771 96.9503C234.686 97.4584 234.798 97.9805 235.083 98.4055C235.376 98.6891 235.754 98.8631 236.155 98.8991C240.642 99.6863 244.523 95.6142 246.713 91.5251C249.154 87.0088 250.577 81.9899 250.877 76.8369C251.329 68.1737 248.296 59.6509 248.483 50.9792C248.699 41.1204 253.05 31.1934 250.503 21.6835Z" fill="black"/>
<path d="M250.918 21.258C250.681 20.3687 250.353 19.4454 249.672 18.8497C249.021 18.3712 248.269 18.0563 247.478 17.9306C245.582 17.4202 243.656 17.0421 241.71 16.7988C241.432 15.8539 241.012 14.9595 240.464 14.1479C236.392 8.25897 230.367 2.70619 223.278 1.45096C219.568 0.791434 215.267 1.38288 212.891 4.3784C211.586 6.02509 211.025 8.20791 209.708 9.82481C207.169 12.965 202.586 13.3522 199.387 15.7818C197.679 17.0583 196.441 18.9092 195.231 20.7049C193.923 22.6494 192.576 24.6748 192.161 26.998C191.33 31.6402 194.326 36.0654 194.878 40.7502C196.125 51.2303 185.155 60.5275 187.229 70.8671C188.438 76.8965 193.877 81.143 199.503 83.296C201.485 84.0576 203.749 84.815 204.676 86.7638C205.091 87.6148 205.162 88.5977 205.553 89.4572C206.866 92.3251 211.183 92.4357 213.501 90.3465C215.82 88.2573 216.551 84.8789 216.825 81.7259C217.939 67.9567 212.554 54.3534 213.181 40.5502C213.368 36.376 214.515 31.6402 218.168 29.751C223.083 27.198 228.996 31.453 234.406 30.6403C236.966 37.0191 237.509 44.0592 235.96 50.7707C235.1 54.4428 233.612 58.0042 233.504 61.7912C233.342 67.5567 236.379 72.8244 239.005 77.9219C239.569 78.8751 239.946 79.9316 240.115 81.0323C240.156 82.1491 239.953 83.2613 239.521 84.2874C238.037 88.3765 235.478 92.1719 235.187 96.5248C235.102 97.0329 235.213 97.555 235.498 97.98C235.791 98.2636 236.169 98.4376 236.57 98.4736C241.058 99.2608 244.939 95.1887 247.129 91.0997C249.57 86.5833 250.993 81.5644 251.292 76.4114C251.745 67.7482 248.712 59.2254 248.899 50.5537C249.115 40.6949 253.465 30.7679 250.918 21.258Z" fill="black"/>
<path d="M241.739 209.657L258.223 210.197L255.858 197.679L243.231 198.909L241.739 209.657Z" fill="#C3C7D9"/>
<path d="M292.814 179.987C291.704 181.404 287.412 183.957 286.997 184.808C286.581 185.659 281.458 188.212 278.824 188.637C276.189 189.063 267.883 190.909 266.358 191.901C265.266 192.616 256.494 194.879 250.731 196.134C249.17 196.513 247.59 196.804 245.998 197.007C243.505 197.147 216.223 187.646 216.223 187.646L221.483 182.114L221.774 182.012C223.262 181.497 230.134 179.119 233.949 177.987C238.245 176.71 243.231 171.464 243.231 171.464C243.231 171.464 250.569 168.911 251.541 168.626C252.514 168.341 249.048 158.699 249.048 158.699C249.048 158.699 264.975 156.435 271.207 154.516C277.44 152.597 291.846 153.308 294.476 160.826C297.106 168.345 293.94 178.57 292.814 179.987Z" fill="#4B4B5B"/>
<path d="M220.237 203.955C220.237 203.955 217.054 207.359 213.867 207.078C210.68 206.798 199.536 207.929 199.536 207.929C197.517 208.754 195.625 209.877 193.923 211.261C191.317 213.363 189.934 211.687 189.676 211.329L189.63 211.261C188.243 215.733 185.06 212.325 185.06 212.325C185.06 212.325 186.443 198.709 186.02 197.007C185.596 195.305 188.758 192.382 188.758 192.382L192.497 191.407L201.971 188.922L215.546 193.743L220.237 203.955Z" fill="#E7C7CA"/>
<path opacity="0.1" d="M192.481 191.407L189.676 211.329L189.63 211.261C188.243 215.733 185.06 212.325 185.06 212.325C185.06 212.325 186.443 198.709 186.02 197.007C185.596 195.305 188.758 192.382 188.758 192.382L192.481 191.407Z" fill="black"/>
<path opacity="0.1" d="M212.084 134.739C212.084 134.739 219.422 137.292 225.796 134.739Z" fill="black"/>
<path opacity="0.1" d="M237.136 139.564C237.136 139.564 240.181 141.122 242.537 139.564Z" fill="black"/>
<path opacity="0.1" d="M237.136 143.258C237.136 143.258 242.259 143.96 243.231 142.543Z" fill="black"/>
<path opacity="0.1" d="M235.474 151.193C235.474 151.193 245.097 149.917 247.486 148.215Z" fill="black"/>
<path opacity="0.1" d="M206.109 148.215C206.109 148.215 211.511 151.334 215.529 151.193Z" fill="black"/>
<path opacity="0.1" d="M250.727 196.134C249.166 196.513 247.586 196.804 245.994 197.007C243.501 197.147 216.219 187.646 216.219 187.646L221.479 182.114L221.77 182.012C222.601 182.612 223.282 183.127 223.769 183.518C226.058 185.365 228.269 182.952 229.1 182.952C229.931 182.952 237.131 189.05 237.131 189.05C237.131 189.05 243.78 190.611 244.889 192.028C245.998 193.445 249.875 193.164 250.565 194.156C250.773 194.462 250.798 195.215 250.727 196.134Z" fill="black"/>
<path d="M199.536 159.278C199.536 159.278 192.813 159.673 188.936 158.001C185.06 156.329 172.179 152.47 168.439 155.18C164.7 157.89 155.696 160.286 159.851 171.068C164.006 181.85 165.946 182.131 165.946 182.131C167.232 183.119 168.354 184.311 169.27 185.663C170.517 187.65 182.151 192.186 185.06 192.186C187.968 192.186 193.092 192.186 200.292 197.292C207.493 202.398 214.004 202.968 214.004 202.968C214.004 202.968 223.145 206.798 225.992 207.649C228.838 208.5 241.843 212.184 244.893 211.053C247.943 209.921 249.879 202.823 249.879 202.823C249.879 202.823 251.263 196.441 250.569 195.449C249.875 194.458 245.998 194.739 244.893 193.322C243.788 191.905 237.136 190.343 237.136 190.343C237.136 190.343 229.951 184.242 229.12 184.242C228.289 184.242 226.079 186.65 223.789 184.808C219.229 181.349 214.437 178.221 209.45 175.447C204.19 172.609 199.536 159.278 199.536 159.278Z" fill="#4B4B5B"/>
<path opacity="0.1" d="M186.02 163.392C187.217 163.142 188.454 163.178 189.635 163.497C190.816 163.817 191.91 164.411 192.83 165.235C196.154 168.073 207.339 173.77 207.339 173.77" fill="black"/>
<path opacity="0.1" d="M269.13 163.213C269.13 163.213 254.309 165.511 251.541 168.63Z" fill="black"/>
<path d="M286.166 210.197H285.513C283.17 210.112 275.229 209.857 273.7 210.197C271.901 210.623 248.076 210.197 248.076 210.197L252.734 209.206C252.734 209.206 251.005 203.002 252.102 202.487C252.102 202.487 245.87 198.283 250.569 195.445C255.268 192.607 260.333 193.803 260.333 193.803L272.13 189.709L274.394 188.922C274.394 188.922 287.691 189.633 291.289 198.994C294.887 208.355 286.166 210.197 286.166 210.197Z" fill="#E7C7CA"/>
<path opacity="0.1" d="M286.166 210.197H285.513C289.382 206.929 298.132 196.981 272.13 189.731L274.394 188.943C274.394 188.943 287.691 189.654 291.289 199.015C294.887 208.376 286.166 210.197 286.166 210.197Z" fill="black"/>
<path d="M261.721 199.168C262.123 199.168 262.448 198.835 262.448 198.424C262.448 198.012 262.123 197.679 261.721 197.679C261.32 197.679 260.994 198.012 260.994 198.424C260.994 198.835 261.32 199.168 261.721 199.168Z" fill="#4B4B5B"/>
<path d="M257.496 200.398C257.897 200.398 258.223 200.065 258.223 199.653C258.223 199.242 257.897 198.909 257.496 198.909C257.094 198.909 256.768 199.242 256.768 199.653C256.768 200.065 257.094 200.398 257.496 200.398Z" fill="#4B4B5B"/>
<g opacity="0.1">
<path opacity="0.1" d="M236.907 42.299C237.068 37.6189 236.255 32.9571 234.522 28.6234C229.12 29.4489 223.204 25.1811 218.284 27.7341C214.644 29.6233 213.501 34.3592 213.298 38.5333C213.248 39.6354 213.24 40.7374 213.26 41.8395C213.26 41.448 213.26 41.0523 213.298 40.6608C213.489 36.4867 214.632 31.7509 218.284 29.8616C223.204 27.3086 229.112 31.5636 234.522 30.7509C235.99 34.4217 236.798 38.334 236.907 42.299V42.299Z" fill="black"/>
<path opacity="0.1" d="M195.049 41.5203C195.12 40.5932 195.102 39.6611 194.995 38.7376C194.554 34.9932 192.556 31.4147 192.194 27.7639C191.729 32.1678 194.467 36.3973 194.995 40.8651C195.049 41.0948 195.049 41.2991 195.049 41.5203Z" fill="black"/>
<path opacity="0.1" d="M216.942 79.7048C216.684 82.862 215.957 86.2362 213.618 88.3297C211.278 90.4231 206.97 90.3082 205.669 87.4404C205.254 86.5894 205.191 85.5979 204.788 84.7469C203.866 82.7981 201.597 82.0408 199.615 81.2791C193.985 79.1218 188.554 74.8966 187.345 68.8502C187.237 68.3025 187.163 67.7482 187.125 67.1908C187.023 68.4574 187.097 69.7325 187.345 70.9777C188.554 77.0071 193.993 81.2493 199.615 83.4066C201.597 84.1683 203.866 84.9256 204.788 86.8744C205.204 87.7254 205.274 88.7083 205.669 89.5679C206.978 92.4357 211.295 92.5464 213.618 90.4572C215.94 88.368 216.663 84.9895 216.942 81.8323C217.068 80.1705 217.111 78.5032 217.071 76.8369C217.071 77.8028 217.017 78.7559 216.942 79.7048Z" fill="black"/>
<path opacity="0.1" d="M249.036 48.5369C249.036 49.1538 249.036 49.7665 249.036 50.3793C249.268 42.465 252.102 34.5081 251.824 26.7597C251.608 33.9252 249.194 41.2523 249.036 48.5369Z" fill="black"/>
<path opacity="0.1" d="M240.119 80.5515C240.221 80.0466 240.253 79.5295 240.215 79.0154C240.047 77.9143 239.67 76.8575 239.105 75.905C236.703 71.2245 233.965 66.4334 233.641 61.238C233.641 61.4593 233.612 61.6635 233.608 61.9018C233.442 67.6631 236.479 72.935 239.105 78.0325C239.551 78.8221 239.892 79.6692 240.119 80.5515V80.5515Z" fill="black"/>
<path opacity="0.1" d="M251.425 74.3945C251.115 79.5495 249.682 84.5682 247.232 89.0828C245.039 93.1719 241.162 97.2439 236.67 96.4567C236.268 96.4212 235.889 96.2455 235.598 95.9589C235.514 95.8614 235.448 95.7489 235.403 95.627C235.353 95.9589 235.311 96.295 235.287 96.6354C235.201 97.1422 235.313 97.6633 235.598 98.0864C235.889 98.373 236.268 98.5487 236.67 98.5842C241.162 99.3714 245.039 95.2994 247.232 91.2103C249.682 86.6957 251.115 81.677 251.425 76.522C251.475 75.5263 251.479 74.5349 251.45 73.5435C251.442 73.8286 251.442 74.1094 251.425 74.3945Z" fill="black"/>
</g>
<path opacity="0.1" d="M252.102 202.487C252.102 202.487 262.619 207.006 269.554 197.007" stroke="black" stroke-miterlimit="10"/>
<path opacity="0.1" d="M254.171 210.384C254.171 210.384 262.76 204.666 273.7 210.197" stroke="black" stroke-miterlimit="10"/>
<path opacity="0.1" d="M196.682 209.087C196.682 209.087 200.288 200.755 209.92 207.108" stroke="black" stroke-miterlimit="10"/>
<path opacity="0.1" d="M184.989 85.8788L192.344 79.0708C192.344 79.0708 220.86 77.156 222.04 87.0829C222.04 87.0829 232.149 75.3136 253.411 77.9347L262.407 85.2703L237.543 96.4439L213.381 105.026L195.585 96.8694L184.989 85.8788Z" fill="black"/>
<path d="M184.989 86.3043L192.344 79.4963C192.344 79.4963 220.86 77.5815 222.04 87.5084C222.04 87.5084 232.149 75.7391 253.411 78.3602L262.407 85.6958L237.543 96.8694L213.381 105.452L195.585 97.2949L184.989 86.3043Z" fill="#D5D6DB"/>
<path opacity="0.1" d="M181.736 87.1553L184.989 127.012L219.476 128.786L217.981 89.0998L217.951 88.4318L181.736 87.1553Z" fill="black"/>
<path d="M181.736 86.3043L184.989 126.161L219.476 127.935L217.981 88.2488L217.951 87.5808L181.736 86.3043Z" fill="#010A43"/>
<path opacity="0.1" d="M263.986 86.3043L228.41 91.7677V131.803L263.176 126.659L263.986 86.3043Z" fill="black"/>
<path d="M263.986 85.4533L228.41 90.9167V130.952L263.176 125.808L263.986 85.4533Z" fill="#010A43"/>
<path opacity="0.3" d="M255.597 95.2228L236.379 97.4098L236.799 104.116L255.584 102.014L255.597 95.2228Z" fill="white"/>
<path d="M186.859 147.504L188.816 152.895C188.816 152.895 191.724 155.448 194.907 154.172C198.09 152.895 200.866 152.261 202.249 151.019C203.633 149.776 205.573 143.534 205.573 143.534C205.573 143.534 207.514 136.726 209.45 135.024C211.386 133.322 216.514 109.873 209.45 112.166C202.386 114.46 196.985 135.735 196.985 135.735C196.985 135.735 195.738 137.292 193.939 137.437C192.14 137.581 188.538 137.152 187.844 138.713C187.15 140.275 184.781 144.385 186.859 147.504Z" fill="#E0A27D"/>
<path opacity="0.1" d="M228.41 91.7634C226.588 92.1838 224.696 92.1618 222.885 91.6993C221.073 91.2368 219.392 90.3465 217.976 89.0998L219.476 128.782C219.476 128.782 223.008 132.697 228.41 131.803V91.7634Z" fill="black"/>
<path d="M228.41 90.9124C226.588 91.3328 224.696 91.3108 222.885 90.8483C221.073 90.3858 219.392 89.4955 217.976 88.2488L219.476 127.931C219.476 127.931 223.008 131.846 228.41 130.952V90.9124Z" fill="#010A43"/>
<path opacity="0.1" d="M228.41 90.9124C226.588 91.3328 224.696 91.3108 222.885 90.8483C221.073 90.3858 219.392 89.4955 217.976 88.2488L219.476 127.931C219.476 127.931 223.008 131.846 228.41 130.952V90.9124Z" fill="black"/>
<path opacity="0.1" d="M229.241 86.4404C229.241 86.4404 243.713 81.9089 247.486 82.5471Z" fill="black"/>
<path opacity="0.1" d="M213.053 84.4618C213.053 84.4618 199.025 81.0579 196.682 82.0237Z" fill="black"/>
<path opacity="0.1" d="M238.365 87.0063C238.365 87.0063 248.043 83.3726 251.541 85.1001Z" fill="black"/>
<path opacity="0.1" d="M233.492 178.161C234.991 177.008 236.587 175.993 238.262 175.128C240.755 173.898 245.325 170.707 245.325 170.707" fill="black"/>
<path opacity="0.1" d="M196.682 134.739C196.682 134.739 190.611 139.824 188.787 140.27C186.963 140.717 185.837 144.683 185.837 144.683" fill="black"/>
<path d="M260.417 146.747L258.48 152.15C258.48 152.15 255.572 154.703 252.385 153.427C249.198 152.15 246.431 151.516 245.043 150.274C243.655 149.032 241.719 142.789 241.719 142.789C241.719 142.789 239.782 135.981 237.842 134.279C235.901 132.577 230.778 109.128 237.842 111.422C244.906 113.715 250.307 134.99 250.307 134.99C250.307 134.99 251.554 136.547 253.353 136.692C255.152 136.837 258.755 136.407 259.448 137.969C260.142 139.53 262.494 143.64 260.417 146.747Z" fill="#E0A27D"/>
<path opacity="0.1" d="M257.022 136.807C257.022 136.807 260.99 139.419 260.973 142.543Z" fill="black"/>
<path d="M223.353 61.0763C233.604 61.0763 241.914 52.5666 241.914 42.0692C241.914 31.5719 233.604 23.0621 223.353 23.0621C213.102 23.0621 204.792 31.5719 204.792 42.0692C204.792 52.5666 213.102 61.0763 223.353 61.0763Z" fill="#E0A27D"/>
<path d="M211.698 36.9675C213.95 36.6058 215.924 35.2655 218.076 34.4953C222.892 32.7635 228.219 33.9507 233.093 35.5123C234.962 36.1122 236.861 36.7888 238.823 36.7888C240.784 36.7888 242.865 35.9676 243.867 34.2358C244.789 32.6444 244.611 30.5765 243.834 28.9043C243.057 27.232 241.756 25.8875 240.443 24.6195C236.122 20.441 230.762 16.535 224.832 16.9605C222.447 17.1349 220.166 18.0072 217.972 18.9731C215.21 20.1921 212.521 21.5789 209.92 23.126C207.921 24.3131 204.219 25.9002 203.068 28.0703C200.45 32.9593 207.626 37.6228 211.698 36.9675Z" fill="black"/>
<path opacity="0.1" d="M243.867 32.4487C242.865 34.1805 240.784 35.0017 238.823 35.0017C236.861 35.0017 234.962 34.3507 233.089 33.7507C228.215 32.1891 222.892 30.9977 218.072 32.7338C215.924 33.5039 213.946 34.8613 211.694 35.2017C208.411 35.7293 203.126 32.8018 202.553 29.0787C201.909 33.3805 208.037 37.0653 211.694 36.4782C213.946 36.1165 215.924 34.7762 218.072 34.0103C222.892 32.2742 228.215 33.4656 233.089 35.0272C234.962 35.6272 236.857 36.3037 238.823 36.2782C240.788 36.2526 242.865 35.4612 243.867 33.7252C244.386 32.7807 244.59 31.6888 244.449 30.6148C244.384 31.2614 244.185 31.8865 243.867 32.4487Z" fill="black"/>
<path d="M394.493 263.049C394.493 263.049 396.957 266.346 393.355 271.329C389.752 276.312 386.786 280.515 387.982 283.622C387.982 283.622 393.417 274.371 397.838 274.239C402.259 274.107 399.351 268.61 394.493 263.049Z" fill="#010A43"/>
<path opacity="0.1" d="M394.493 263.049C394.708 263.367 394.877 263.715 394.996 264.083C399.309 269.274 401.611 274.12 397.46 274.239C393.596 274.354 388.963 281.43 387.853 283.213C387.889 283.357 387.932 283.499 387.982 283.639C387.982 283.639 393.417 274.388 397.838 274.256C402.259 274.124 399.351 268.61 394.493 263.049Z" fill="black"/>
<path d="M399.064 267.253C399.064 268.414 398.935 269.355 398.781 269.355C398.628 269.355 398.495 268.414 398.495 267.253C398.495 266.091 398.653 266.64 398.81 266.64C398.968 266.64 399.064 266.091 399.064 267.253Z" fill="#FFD037"/>
<path d="M400.639 268.64C399.646 269.193 398.777 269.529 398.702 269.389C398.628 269.248 399.371 268.682 400.364 268.112C401.357 267.542 400.967 267.959 401.042 268.112C401.117 268.265 401.636 268.082 400.639 268.64Z" fill="#FFD037"/>
<path d="M381.471 263.049C381.471 263.049 379.007 266.346 382.61 271.329C386.212 276.312 389.179 280.515 387.978 283.622C387.978 283.622 382.547 274.371 378.122 274.239C373.697 274.107 376.626 268.61 381.471 263.049Z" fill="#010A43"/>
<path opacity="0.1" d="M381.471 263.049C381.257 263.367 381.087 263.715 380.968 264.083C376.655 269.274 374.353 274.12 378.504 274.239C382.365 274.354 387.002 281.43 388.111 283.213C388.076 283.358 388.032 283.5 387.978 283.639C387.978 283.639 382.547 274.388 378.122 274.256C373.697 274.124 376.626 268.61 381.471 263.049Z" fill="black"/>
<path d="M376.892 267.253C376.892 268.414 377.017 269.355 377.175 269.355C377.333 269.355 377.462 268.414 377.462 267.253C377.462 266.091 377.299 266.64 377.146 266.64C376.992 266.64 376.892 266.091 376.892 267.253Z" fill="#FFD037"/>
<path d="M375.322 268.64C376.315 269.193 377.183 269.529 377.258 269.389C377.333 269.248 376.589 268.682 375.596 268.112C374.603 267.542 374.993 267.959 374.919 268.112C374.844 268.265 374.324 268.082 375.322 268.64Z" fill="#FFD037"/>
<path opacity="0.1" d="M387.982 308.862C402.21 308.862 413.744 307.051 413.744 304.816C413.744 302.581 402.21 300.769 387.982 300.769C373.755 300.769 362.221 302.581 362.221 304.816C362.221 307.051 373.755 308.862 387.982 308.862Z" fill="#010A43"/>
<path d="M401.241 279.175L401.116 280.205L400.942 281.66L400.871 282.269L400.697 283.724L400.622 284.332L400.452 285.783L398.478 302.335C398.303 303.812 395.948 304.965 393.101 304.965H382.859C380.013 304.965 377.661 303.812 377.482 302.335L375.509 285.783L375.334 284.332L375.263 283.724L375.089 282.269L375.014 281.66L374.844 280.205L374.719 279.175C374.624 278.324 375.895 277.635 377.507 277.635H398.457C400.065 277.635 401.341 278.337 401.241 279.175Z" fill="#65617D"/>
<path d="M401.116 280.205L400.946 281.66H375.018L374.844 280.205H401.116Z" fill="#9D9CB5"/>
<path d="M400.871 282.269L400.701 283.724H375.263L375.089 282.269H400.871Z" fill="#9D9CB5"/>
<path d="M400.626 284.332L400.452 285.787H375.509L375.338 284.332H400.626Z" fill="#9D9CB5"/>
</g>
<defs>
<linearGradient id="paint0_linear" x1="227.134" y1="213.567" x2="227.134" y2="-3.51272e-06" gradientUnits="userSpaceOnUse">
<stop stop-color="#808080" stop-opacity="0.25"/>
<stop offset="0.54" stop-color="#808080" stop-opacity="0.12"/>
<stop offset="1" stop-color="#808080" stop-opacity="0.1"/>
</linearGradient>
<clipPath id="clip0">
<rect width="425" height="346" fill="white"/>
</clipPath>
</defs>
</svg>
